<svg width="150" height="131" viewBox="0 0 150 131" fill="none" xmlns="http://www.w3.org/2000/svg">
<line x1="55.9328" y1="127.537" x2="63.0922" y2="110.397" stroke="#323232" stroke-width="3"/>
<line y1="-1.5" x2="18.5751" y2="-1.5" transform="matrix(-0.385434 -0.922736 -0.922736 0.385434 92.5259 128.115)" stroke="#323232" stroke-width="3"/>
<mask id="path-3-inside-1_1372_34" fill="white">
<rect width="150" height="112.195" rx="3"/>
</mask>
<rect width="150" height="112.195" rx="3" stroke="#323232" stroke-width="8" mask="url(#path-3-inside-1_1372_34)"/>
<rect x="28.0486" y="125.609" width="95.1219" height="4.87805" rx="2" fill="#323232"/>
<rect x="6.08984" y="93.0811" width="137.882" height="3.47967" fill="#323232"/>
<path d="M89.9575 68.1398L74.8133 76.5532L59.6691 68.1398C59.3517 67.9634 59.1548 67.6288 59.1548 67.2656V49.5857L74.2919 40.3353C74.612 40.1396 75.0147 40.1396 75.3348 40.3353L90.4719 49.5857V67.2656C90.4719 67.6288 90.275 67.9634 89.9575 68.1398Z" fill="#36C0CD"/>
<path d="M74.8133 76.5532L89.9575 68.1398C90.275 67.9634 90.4719 67.6288 90.4719 67.2656V49.5857M74.8133 76.5532L59.6691 68.1398C59.3517 67.9634 59.1548 67.6288 59.1548 67.2656V49.5857M74.8133 76.5532V58.2849M59.1548 49.5857L74.2919 40.3353C74.612 40.1396 75.0147 40.1396 75.3348 40.3353L90.4719 49.5857M59.1548 49.5857L74.8133 58.2849M90.4719 49.5857L74.8133 58.2849" stroke="#323232" stroke-width="4"/>
<rect x="123.419" y="20.7686" width="14.1382" height="55.8943" rx="2.5" fill="#BF5A60" stroke="#323232" stroke-width="5"/>
<rect x="12.9392" y="20.7686" width="30.6667" height="23.7073" rx="2.5" fill="#F6A436" stroke="#323232" stroke-width="5"/>
<rect x="127.878" y="29.5771" width="5.21917" height="4.34931" rx="2" fill="#323232"/>
<rect x="26.0979" y="25.228" width="11.3082" height="4.34931" rx="2" fill="#323232"/>
<rect x="19.1384" y="33.0566" width="18.2683" height="4.34959" rx="2" fill="#323232"/>
<rect x="127.878" y="63.5039" width="5.21917" height="4.34931" rx="2" fill="#323232"/>
<rect x="127.878" y="52.1948" width="5.21917" height="4.34931" rx="2" fill="#323232"/>
<rect x="127.878" y="40.8862" width="5.21917" height="4.34931" rx="2" fill="#323232"/>
<path d="M97.25 69.4201C96.6739 69.0398 95.8985 69.1987 95.5182 69.7749C95.138 70.351 95.2968 71.1264 95.873 71.5067L97.25 69.4201ZM108.121 79.1509C108.797 79.0124 109.233 78.3518 109.094 77.6755L106.837 66.6543C106.698 65.978 106.038 65.5421 105.361 65.6806C104.685 65.8192 104.249 66.4797 104.387 67.156L106.394 76.9526L96.5977 78.9594C95.9214 79.098 95.4855 79.7585 95.624 80.4349C95.7626 81.1112 96.4231 81.5471 97.0994 81.4086L108.121 79.1509ZM95.873 71.5067L107.181 78.9696L108.558 76.883L97.25 69.4201L95.873 71.5067Z" fill="#323232"/>
<path d="M53.2463 69.4201C53.8225 69.0398 54.5978 69.1987 54.9781 69.7749C55.3584 70.351 55.1995 71.1264 54.6233 71.5067L53.2463 69.4201ZM42.3758 79.1509C41.6994 79.0124 41.2635 78.3518 41.402 77.6755L43.6597 66.6543C43.7983 65.978 44.4588 65.5421 45.1351 65.6806C45.8114 65.8192 46.2474 66.4797 46.1089 67.156L44.102 76.9526L53.8986 78.9594C54.5749 79.098 55.0109 79.7585 54.8723 80.4349C54.7338 81.1112 54.0732 81.5471 53.3969 81.4086L42.3758 79.1509ZM54.6233 71.5067L43.3151 78.9696L41.9381 76.883L53.2463 69.4201L54.6233 71.5067Z" fill="#323232"/>
<path d="M73.563 34.4277C73.563 35.1181 74.1226 35.6777 74.813 35.6777C75.5033 35.6777 76.063 35.1181 76.063 34.4277L73.563 34.4277ZM75.6969 19.995C75.2087 19.5069 74.4173 19.5069 73.9291 19.995L65.9742 27.95C65.486 28.4381 65.486 29.2296 65.9742 29.7177C66.4623 30.2059 67.2538 30.2059 67.7419 29.7177L74.813 22.6467L81.8841 29.7177C82.3722 30.2059 83.1637 30.2059 83.6518 29.7177C84.14 29.2296 84.14 28.4381 83.6518 27.95L75.6969 19.995ZM76.063 34.4277L76.063 20.8789L73.563 20.8789L73.563 34.4277L76.063 34.4277Z" fill="#323232"/>
</svg>
