<svg width="150" height="131" viewBox="0 0 150 131" fill="none" xmlns="http://www.w3.org/2000/svg">
<path d="M68 74V64L76.5 68.5L68 74Z" fill="#323232"/>
<line x1="55.9328" y1="127.537" x2="63.0922" y2="110.397" stroke="#323232" stroke-width="3"/>
<line y1="-1.5" x2="18.5751" y2="-1.5" transform="matrix(-0.385434 -0.922736 -0.922736 0.385434 92.5259 128.115)" stroke="#323232" stroke-width="3"/>
<mask id="path-4-inside-1_1381_6" fill="white">
<rect width="150" height="112.195" rx="3"/>
</mask>
<rect width="150" height="112.195" rx="3" stroke="#323232" stroke-width="8" mask="url(#path-4-inside-1_1381_6)"/>
<rect x="28.0486" y="125.609" width="95.1219" height="4.87805" rx="2" fill="#323232"/>
<rect x="6.08984" y="93.0811" width="137.882" height="3.47967" fill="#323232"/>
<path d="M58.0343 37.4935C58.0343 34.6218 58.0669 31.717 58.0343 28.8453C58.0343 27.624 58.4904 26.8648 59.5653 26.3366C64.1584 24.026 68.7188 21.6824 73.2793 19.3388C74.1263 18.9097 74.8429 18.8767 75.6898 19.3058C80.3155 21.6824 84.9737 24.026 89.6319 26.3696C90.5765 26.8648 91 27.558 91 28.6472C91 34.5558 91 40.4313 91 46.3398C91 47.4621 90.5765 48.1883 89.5667 48.6834C84.9411 50.994 80.348 53.3377 75.7224 55.6813C74.8429 56.1434 74.0611 56.0774 73.1816 55.6483C68.6211 53.3046 64.0606 50.961 59.4676 48.6834C58.3926 48.1553 57.9692 47.3961 58.0017 46.2408C58.0343 43.3361 58.0343 40.3983 58.0343 37.4935ZM72.693 51.2251C72.693 46.4389 72.7255 41.9167 72.6604 37.3945C72.6604 37.0644 72.1718 36.5693 71.8134 36.4043C68.784 34.8198 65.722 33.3014 62.6925 31.783C62.4319 31.651 62.1387 31.552 61.7478 31.3869C61.7478 36.0742 61.7478 40.5963 61.7804 45.1185C61.7804 45.4156 62.0736 45.8117 62.3342 45.9437C65.6568 47.6602 69.0446 49.3766 72.693 51.2251ZM87.3516 31.2549C83.8335 33.0374 80.5761 34.6878 77.3186 36.3052C76.6019 36.6683 76.3413 37.0974 76.3413 37.9226C76.3739 41.9497 76.3739 46.0098 76.3739 50.0368C76.3739 50.3669 76.4391 50.73 76.4716 51.1921C78.817 50.0038 81.0321 48.8815 83.2146 47.7592C84.5502 47.066 86.407 46.6699 87.0585 45.5806C87.7425 44.4253 87.319 42.5438 87.3516 40.9924C87.3516 37.8236 87.3516 34.6548 87.3516 31.2549ZM63.9629 28.2181C67.481 30.0006 70.8036 31.684 74.1588 33.3675C74.3543 33.4665 74.7126 33.4665 74.9406 33.3345C78.2958 31.684 81.6185 29.9676 85.104 28.2181C81.6185 26.4357 78.2633 24.7522 74.9081 23.1018C74.7126 23.0028 74.3543 23.0028 74.1263 23.1018C70.8036 24.7852 67.4484 26.4687 63.9629 28.2181Z" fill="#BF5A60"/>
<path d="M65.2381 66.0114C65.2381 64.4869 65.2381 63.0951 65.2381 61.7032C65.2381 60.8415 65.3689 60.0462 66.219 59.5822C67.069 59.0851 67.7883 59.4165 68.5076 59.9136C71.9406 62.2334 75.3735 64.5532 78.8065 66.873C80.3759 67.9335 80.4086 69.3585 78.8392 70.4521C75.4062 72.8051 71.9406 75.158 68.4422 77.4778C66.7748 78.6046 65.3362 77.8424 65.2708 75.8208C65.2381 74.2632 65.2054 72.6725 65.2708 71.1149C65.3362 70.1207 64.9112 69.8225 64.0284 69.5905C60.4974 68.5632 56.9663 67.6021 53.5661 66.3096C50.8851 65.3154 48.4984 63.6584 46.4713 61.5706C42.0575 56.9641 41.7959 51.3303 46.0135 46.6576C47.5175 44.9675 49.5119 43.7081 51.3428 42.3494C52.2583 41.6866 53.3699 42.018 53.893 42.9128C54.4161 43.8075 54.0565 44.868 53.141 45.5971C51.5063 46.8896 49.7081 48.0495 48.3676 49.6071C45.9155 52.4571 46.1443 55.7711 48.7272 58.5217C49.3811 59.2508 50.1331 59.9136 50.9178 60.5101C55.1681 63.5259 60.007 64.984 65.2381 66.0114ZM68.998 64.7521C68.998 67.4364 68.998 69.8888 68.998 72.5731C70.9924 71.2144 72.8233 69.9882 74.785 68.6626C72.8233 67.337 70.9924 66.1108 68.998 64.7521Z" fill="#F6A436"/>
<path d="M106 54.171C105.903 57.8971 104.054 60.8102 101.331 63.1136C96.8884 66.8735 91.6354 68.7704 86.123 69.9559C85.1502 70.1592 84.372 69.6511 84.0802 68.601C83.7883 67.5171 84.3072 66.6364 85.4096 66.2638C88.0361 65.4169 90.695 64.6717 93.2242 63.6555C95.8183 62.6393 98.1854 61.1828 100.131 59.0488C102.92 56.0002 103.147 52.6129 100.488 49.4288C99.2879 48.0061 97.699 46.8883 96.2074 45.7705C95.1049 44.9236 94.651 43.9074 95.1698 42.9251C95.721 41.8751 96.8559 41.7057 98.1205 42.4848C100.52 44.0091 102.725 45.7705 104.281 48.311C105.384 50.0724 106 51.9693 106 54.171Z" fill="#36C0CD"/>
</svg>
