<svg width="250" height="171" viewBox="0 0 250 171" fill="none" xmlns="http://www.w3.org/2000/svg">
<path d="M16.129 171L0 155H250L237.327 171H16.129Z" fill="#323232"/>
<path d="M169.437 114.5C154.719 124.24 107.967 139.824 87.8373 83.115" stroke="#323232" stroke-width="16" stroke-linecap="round"/>
<path d="M155.37 96.1019C164.72 90.3878 175.427 93.8653 179.612 96.3184C183.219 98.4828 191.56 107.227 196.062 124.889C201.689 146.967 208.28 162.767 204.168 170.559H159.915L152.34 135.495C154.504 134.846 159.785 133.374 163.595 132.681C168.357 131.815 175.283 125.971 177.664 124.889C180.045 123.807 183.508 114.283 180.478 109.305C177.447 104.327 169.872 100.431 163.595 102.812C157.318 105.193 151.474 108.872 144.981 110.604C138.487 112.335 124.851 111.253 117.709 105.193C110.566 99.1322 105.371 91.1238 104.073 87.0113C102.774 82.8988 103.64 77.9206 109.484 77.2712C115.328 76.6219 117.492 82.033 120.955 87.0113C123.726 90.9938 129.469 95.4526 131.994 97.1842C135.89 99.2043 146.02 101.816 155.37 96.1019Z" fill="#323232"/>
<circle cx="27.2721" cy="27.2721" r="27.2721" transform="matrix(-1 0 0 1 183.289 28.5708)" fill="#BF8573"/>
<path d="M195.622 43.8197C195.621 43.819 195.62 43.8182 195.62 43.8175C196.103 43.1162 210.098 23.6387 186.978 8.6159C170.542 -2.0643 157.52 9.47476 153.395 16.0376C163.937 20.4776 168.24 23.507 176.2 28.1859C182.568 31.9284 191.798 40.1648 195.62 43.8175C195.602 43.8426 195.602 43.8437 195.622 43.8197Z" fill="#BF5A60"/>
<path d="M194.911 43.9612C198.444 47.2827 196.766 50.7337 195.486 52.0441C194.89 52.4576 193.274 53.6966 191.583 55.3438C189.471 57.4029 189.719 59.0359 189.395 60.4709C189.07 61.9059 186.385 65.8922 182.347 64.0195C179.116 62.5214 175.469 58.7169 174.049 57.0019C169.198 52.9572 160.465 46.0466 155.73 44.222C151.942 42.7623 143.726 37.5091 140.092 35.0649C138.903 33.745 137.25 30.5145 140.145 28.1524C143.04 25.7903 143.706 22.2158 143.677 20.7239C143.48 18.2568 144.623 13.8075 150.774 15.7465C158.393 18.1483 165.819 22.5937 174.013 27.4983L174.237 27.6324C182.52 32.5899 190.496 39.8094 194.911 43.9612Z" fill="#323232"/>
<rect width="4.24084" height="4.24084" transform="matrix(-1 0 0 1 112.914 32.0535)" fill="#323232"/>
<path d="M119.992 80.2777V51.3484L122.684 50.1393V41.4515H117.704V37.5107L115.236 34.9133H101.059L88.0033 38.7646V42.795L96.7072 45.7506V46.4224H94.1498V80.2777H119.992Z" fill="#323232"/>
<path d="M73.0927 48.0429H79.687V71.7047H71.7351V47.655H73.0927V48.0429Z" fill="#323232"/>
<rect width="1.93949" height="23.6618" transform="matrix(-1 0 0 1 82.79 47.655)" fill="#323232"/>
<path d="M87.0557 51.5336L83.9525 50.7578V68.6011L87.0557 67.8253L85.892 66.6617V52.6973L87.0557 51.5336Z" fill="#323232"/>
<path d="M87.0568 53.0853L93.2632 50.7579V68.6013L87.0568 66.2739V53.0853Z" fill="#323232"/>
<path d="M47.4912 44.9395H54.4733V74.0318H47.4912V72.4802L49.4306 70.9287V69.3771L44.0001 64.7223V54.249L49.4306 49.5942V48.0426L47.4912 46.491V44.9395Z" fill="#323232"/>
<rect width="7.37007" height="27.5408" transform="matrix(-1 0 0 1 70.3774 45.7156)" fill="#323232"/>
<path d="M55.8308 44.9395L61.8433 45.7153V73.256L55.8308 74.0318V44.9395Z" fill="#323232"/>
<rect width="3.49109" height="1.1637" rx="0.581848" transform="matrix(-1 0 0 1 77.3599 51.9216)" fill="#D9D9D9"/>
<rect width="3.49109" height="1.1637" rx="0.581848" transform="matrix(-1 0 0 1 77.3599 56.5767)" fill="#D9D9D9"/>
<rect width="3.49109" height="1.1637" rx="0.581848" transform="matrix(-1 0 0 1 77.3599 61.2312)" fill="#D9D9D9"/>
<rect width="3.49109" height="1.1637" rx="0.581848" transform="matrix(-1 0 0 1 77.3599 65.8857)" fill="#D9D9D9"/>
<rect width="4.26688" height="1.1637" transform="matrix(-1 0 0 1 61.8428 53.085)" fill="#D9D9D9"/>
<rect width="4.26688" height="1.1637" transform="matrix(-1 0 0 1 61.8428 58.9041)" fill="#D9D9D9"/>
<rect width="4.26688" height="1.1637" transform="matrix(-1 0 0 1 61.8428 64.7224)" fill="#D9D9D9"/>
<rect width="3.94473" height="1.15055" transform="matrix(-1 0 0 1 107.233 50.5278)" fill="#D9D9D9"/>
<rect width="8.28255" height="15.6448" rx="4.14128" transform="matrix(-1 0 0 1 115.034 17.9536)" fill="#F6A436"/>
</svg>
