<svg width="250" height="171" viewBox="0 0 250 171" fill="none" xmlns="http://www.w3.org/2000/svg">
<path d="M0 120.107C2.76436 124.994 5.75114 129.597 8.92857 133.867L241.071 134.342C244.249 130.071 247.236 125.468 250 120.581L0 120.107Z" fill="#3F3D56"/>
<path d="M169.929 77.4874V116.463C169.929 117.509 170.77 118.327 171.844 118.327H231.18C232.255 118.327 233.096 117.509 233.096 116.463V77.4874C233.096 76.4414 232.255 75.6228 231.18 75.6228H171.844C170.816 75.6228 169.929 76.4414 169.929 77.4874Z" fill="#3F3D56"/>
<path d="M171.708 78.403V116.437C171.708 116.983 172.169 117.438 172.722 117.438H230.302C230.856 117.438 231.317 116.983 231.317 116.437V78.403C231.317 77.8571 230.856 77.4021 230.302 77.4021H172.722C172.169 77.4021 171.708 77.8116 171.708 78.403Z" fill="#A4A4A4"/>
<path d="M169.327 125.018C169.557 125.302 169.88 125.445 170.202 125.445H232.834C233.479 125.445 233.986 124.923 233.986 124.259C233.986 124.164 233.986 124.116 233.94 124.021L232.973 119.276C232.88 118.897 232.604 118.565 232.236 118.422C232.098 118.375 231.959 118.327 231.821 118.327H171.169C171.031 118.327 170.893 118.375 170.755 118.422C170.386 118.565 170.11 118.897 170.018 119.276L169.051 124.021C169.005 124.401 169.097 124.733 169.327 125.018Z" fill="#2F2E41"/>
<path d="M173.17 120.107H171.136C170.946 120.107 170.818 120.035 170.818 119.929V119.395C170.818 119.288 170.946 119.217 171.136 119.217H173.17C173.36 119.217 173.487 119.288 173.487 119.395V119.929C173.487 119.989 173.447 120.038 173.377 120.069L173.344 120.082L173.305 120.093C173.288 120.097 173.269 120.1 173.25 120.102L173.211 120.106L173.17 120.107Z" fill="#3F3D56"/>
<path d="M175.479 120.107H176.834C176.879 120.107 176.937 120.087 176.98 120.051C177.018 120.021 177.046 119.979 177.046 119.929V119.395C177.046 119.337 177.021 119.29 176.978 119.259C176.942 119.232 176.892 119.217 176.834 119.217H175.479C175.351 119.217 175.267 119.288 175.267 119.395V119.929C175.267 119.955 175.272 119.979 175.281 120C175.296 120.034 175.324 120.062 175.36 120.081C175.392 120.097 175.433 120.107 175.479 120.107Z" fill="#3F3D56"/>
<path d="M180.393 120.107H179.037C178.972 120.107 178.918 120.088 178.881 120.055C178.865 120.042 178.853 120.026 178.844 120.008C178.832 119.985 178.825 119.958 178.825 119.929V119.395C178.825 119.288 178.91 119.217 179.037 119.217H180.393C180.471 119.217 180.534 119.244 180.57 119.29C180.592 119.318 180.605 119.354 180.605 119.395V119.929C180.605 119.959 180.598 119.986 180.585 120.01C180.569 120.041 180.542 120.066 180.508 120.083C180.475 120.098 180.437 120.107 180.393 120.107Z" fill="#3F3D56"/>
<path d="M182.702 120.107H184.736C184.926 120.107 185.053 120.035 185.053 119.929V119.395C185.053 119.342 185.022 119.298 184.968 119.267C184.94 119.251 184.906 119.239 184.867 119.23C184.828 119.222 184.784 119.217 184.736 119.217H182.702C182.511 119.217 182.384 119.288 182.384 119.395V119.929C182.384 120.035 182.511 120.107 182.702 120.107Z" fill="#3F3D56"/>
<path d="M188.4 120.107H187.045C186.917 120.107 186.833 120.035 186.833 119.929V119.395C186.833 119.365 186.84 119.338 186.852 119.314C186.884 119.254 186.953 119.217 187.045 119.217H188.4C188.527 119.217 188.612 119.288 188.612 119.395V119.929C188.612 120.035 188.527 120.107 188.4 120.107Z" fill="#3F3D56"/>
<path d="M190.603 120.107H191.959C192.043 120.107 192.171 120.035 192.171 119.929V119.395C192.171 119.288 192.086 119.217 191.959 119.217H190.603C190.537 119.217 190.482 119.236 190.445 119.27C190.41 119.301 190.391 119.344 190.391 119.395V119.929C190.391 120.035 190.476 120.107 190.603 120.107Z" fill="#3F3D56"/>
<path d="M196.407 120.107H195.052C194.982 120.107 194.924 120.085 194.887 120.048C194.873 120.033 194.861 120.016 194.853 119.997L194.846 119.978L194.843 119.962L194.84 119.943L194.84 119.929V119.395C194.84 119.288 194.924 119.217 195.052 119.217H196.407C196.534 119.217 196.619 119.288 196.619 119.395V119.929C196.576 120.035 196.492 120.107 196.407 120.107Z" fill="#3F3D56"/>
<path d="M198.61 120.107H199.966C200.093 120.107 200.178 120.035 200.178 119.929V119.395C200.178 119.288 200.093 119.217 199.966 119.217H198.61C198.483 119.217 198.398 119.288 198.398 119.395V119.929C198.398 119.989 198.425 120.037 198.471 120.069C198.492 120.083 198.517 120.093 198.544 120.1C198.565 120.104 198.587 120.107 198.61 120.107Z" fill="#3F3D56"/>
<path d="M203.525 120.107H202.169C202.115 120.107 202.069 120.094 202.033 120.071C201.985 120.04 201.957 119.99 201.957 119.929V119.395C201.957 119.288 202.042 119.217 202.169 119.217H203.525C203.652 119.217 203.737 119.288 203.737 119.395V119.929C203.737 119.943 203.735 119.956 203.732 119.969C203.728 119.989 203.72 120.008 203.709 120.024C203.693 120.049 203.669 120.068 203.64 120.083C203.608 120.098 203.569 120.107 203.525 120.107Z" fill="#3F3D56"/>
<path d="M206.618 120.107H207.973C208.1 120.107 208.185 120.035 208.185 119.929V119.395C208.185 119.288 208.1 119.217 207.973 119.217H206.618C206.599 119.217 206.582 119.219 206.565 119.221C206.552 119.224 206.539 119.227 206.527 119.231C206.506 119.238 206.488 119.248 206.472 119.259C206.448 119.277 206.43 119.3 206.419 119.327C206.41 119.348 206.406 119.37 206.406 119.395V119.929C206.406 120.035 206.49 120.107 206.618 120.107Z" fill="#3F3D56"/>
<path d="M211.574 120.107H210.176C210.049 120.107 209.964 120.035 209.964 119.929V119.395C209.964 119.336 209.99 119.288 210.034 119.257C210.07 119.231 210.119 119.217 210.176 119.217H211.532C211.659 119.217 211.744 119.288 211.744 119.395V119.929C211.744 120.035 211.659 120.107 211.574 120.107Z" fill="#3F3D56"/>
<path d="M213.735 120.107H215.09C215.218 120.107 215.302 120.035 215.302 119.929V119.395C215.302 119.288 215.218 119.217 215.09 119.217H213.735C213.608 119.217 213.523 119.288 213.523 119.395V119.929C213.523 119.95 213.526 119.97 213.533 119.989C213.541 120.011 213.554 120.031 213.571 120.048C213.608 120.085 213.665 120.107 213.735 120.107Z" fill="#3F3D56"/>
<path d="M219.539 120.107H218.183C218.124 120.107 218.073 120.091 218.037 120.063C217.995 120.032 217.971 119.986 217.971 119.929V119.395C217.971 119.342 217.992 119.297 218.029 119.266C218.067 119.235 218.12 119.217 218.183 119.217H219.539C219.592 119.217 219.637 119.229 219.673 119.251C219.722 119.282 219.751 119.333 219.751 119.395V119.929C219.751 120.035 219.666 120.107 219.539 120.107Z" fill="#3F3D56"/>
<path d="M221.742 120.107H223.097C223.225 120.107 223.309 120.035 223.309 119.929V119.395C223.309 119.343 223.29 119.3 223.255 119.269C223.236 119.252 223.211 119.238 223.183 119.229C223.168 119.225 223.152 119.221 223.135 119.219C223.123 119.218 223.111 119.217 223.097 119.217H221.742C221.615 119.217 221.53 119.288 221.53 119.395V119.929C221.53 119.949 221.533 119.967 221.539 119.984C221.547 120.01 221.561 120.032 221.58 120.05C221.617 120.086 221.673 120.107 221.742 120.107Z" fill="#3F3D56"/>
<path d="M227.44 120.107H225.406C225.216 120.107 225.089 120.035 225.089 119.929V119.395C225.089 119.288 225.216 119.217 225.406 119.217H227.44C227.526 119.217 227.599 119.232 227.654 119.257C227.72 119.289 227.758 119.337 227.758 119.395V119.929C227.758 119.945 227.754 119.961 227.745 119.975C227.731 120.001 227.705 120.024 227.673 120.043C227.606 120.083 227.513 120.107 227.44 120.107Z" fill="#3F3D56"/>
<path d="M231.105 120.107H229.749C229.622 120.107 229.537 120.035 229.537 119.929V119.395C229.537 119.343 229.557 119.3 229.592 119.269C229.629 119.236 229.684 119.217 229.749 119.217H231.105C231.232 119.217 231.317 119.288 231.317 119.395V119.929L231.315 119.956L231.314 119.964C231.312 119.972 231.31 119.981 231.307 119.989C231.303 119.998 231.299 120.007 231.294 120.015C231.274 120.051 231.238 120.079 231.191 120.094C231.165 120.102 231.136 120.107 231.105 120.107Z" fill="#3F3D56"/>
<path d="M229.749 121.886H231.105C231.232 121.886 231.317 121.815 231.317 121.708V121.174C231.317 121.068 231.232 120.996 231.105 120.996H229.749C229.622 120.996 229.537 121.068 229.537 121.174V121.708C229.537 121.815 229.622 121.886 229.749 121.886Z" fill="#3F3D56"/>
<path d="M227.44 121.886H225.406C225.216 121.886 225.089 121.815 225.089 121.708V121.174C225.089 121.068 225.216 120.996 225.406 120.996H227.44C227.631 120.996 227.758 121.068 227.758 121.174V121.708C227.758 121.754 227.722 121.794 227.671 121.824C227.605 121.863 227.512 121.886 227.44 121.886Z" fill="#3F3D56"/>
<path d="M221.742 121.886H223.097C223.225 121.886 223.309 121.815 223.309 121.708V121.174C223.309 121.096 223.264 121.037 223.19 121.011C223.163 121.002 223.132 120.996 223.097 120.996H221.742C221.615 120.996 221.53 121.068 221.53 121.174V121.708C221.53 121.815 221.615 121.886 221.742 121.886Z" fill="#3F3D56"/>
<path d="M219.539 121.886H218.183C218.056 121.886 217.971 121.815 217.971 121.708V121.174C217.971 121.068 218.056 120.996 218.183 120.996H219.539L219.567 120.998L219.594 121.001L219.613 121.006C219.63 121.01 219.646 121.016 219.66 121.024C219.717 121.054 219.751 121.107 219.751 121.174V121.708C219.751 121.815 219.666 121.886 219.539 121.886Z" fill="#3F3D56"/>
<path d="M213.735 121.886H215.09C215.218 121.886 215.302 121.815 215.302 121.708V121.174C215.302 121.129 215.287 121.091 215.26 121.061C215.223 121.02 215.164 120.996 215.09 120.996H213.735C213.608 120.996 213.523 121.068 213.523 121.174V121.708C213.523 121.815 213.608 121.886 213.735 121.886Z" fill="#3F3D56"/>
<path d="M211.532 121.886H210.176C210.049 121.886 209.964 121.815 209.964 121.708V121.174C209.964 121.148 209.969 121.123 209.979 121.102C209.986 121.086 209.996 121.072 210.008 121.059C210.045 121.02 210.104 120.996 210.176 120.996H211.532C211.659 120.996 211.744 121.068 211.744 121.174V121.708C211.701 121.815 211.616 121.886 211.532 121.886Z" fill="#3F3D56"/>
<path d="M206.618 121.886H207.973C208.004 121.886 208.032 121.882 208.057 121.874C208.092 121.863 208.121 121.845 208.143 121.822C208.17 121.792 208.185 121.753 208.185 121.708V121.174C208.185 121.068 208.1 120.996 207.973 120.996H206.618C206.49 120.996 206.406 121.068 206.406 121.174V121.708C206.406 121.815 206.49 121.886 206.618 121.886Z" fill="#3F3D56"/>
<path d="M203.525 121.886H202.169C202.042 121.886 201.957 121.815 201.957 121.708V121.174C201.957 121.068 202.042 120.996 202.169 120.996H203.525C203.652 120.996 203.737 121.068 203.737 121.174V121.708C203.737 121.733 203.732 121.756 203.723 121.777C203.707 121.816 203.674 121.847 203.631 121.866C203.601 121.879 203.565 121.886 203.525 121.886Z" fill="#3F3D56"/>
<path d="M198.61 121.886H199.966C200.093 121.886 200.178 121.815 200.178 121.708V121.174C200.178 121.151 200.174 121.13 200.166 121.111C200.159 121.09 200.147 121.072 200.13 121.056C200.123 121.048 200.114 121.04 200.104 121.034C200.069 121.01 200.021 120.996 199.966 120.996H198.61C198.573 120.996 198.54 121.002 198.511 121.014C198.501 121.018 198.491 121.022 198.481 121.028L198.459 121.043C198.421 121.075 198.398 121.12 198.398 121.174V121.708L198.399 121.726C198.401 121.739 198.403 121.752 198.407 121.764C198.415 121.786 198.426 121.806 198.442 121.823C198.479 121.863 198.538 121.886 198.61 121.886Z" fill="#3F3D56"/>
<path d="M196.407 121.886H195.052C194.924 121.886 194.84 121.815 194.84 121.708V121.174C194.84 121.133 194.852 121.098 194.875 121.069C194.911 121.024 194.973 120.996 195.052 120.996H196.407C196.534 120.996 196.619 121.068 196.619 121.174V121.708C196.576 121.815 196.492 121.886 196.407 121.886Z" fill="#3F3D56"/>
<path d="M190.603 121.886H191.959C191.986 121.886 192.019 121.878 192.049 121.864C192.066 121.857 192.082 121.848 192.097 121.837C192.116 121.823 192.132 121.807 192.145 121.789C192.161 121.765 192.171 121.738 192.171 121.708V121.174C192.171 121.068 192.086 120.996 191.959 120.996H190.603C190.476 120.996 190.391 121.068 190.391 121.174V121.708C190.391 121.815 190.476 121.886 190.603 121.886Z" fill="#3F3D56"/>
<path d="M188.4 121.886H187.045C186.917 121.886 186.833 121.815 186.833 121.708V121.174C186.833 121.068 186.917 120.996 187.045 120.996H188.4C188.527 120.996 188.612 121.068 188.612 121.174V121.708C188.612 121.815 188.527 121.886 188.4 121.886Z" fill="#3F3D56"/>
<path d="M183.486 121.886H184.841C184.969 121.886 185.053 121.815 185.053 121.708V121.174C185.053 121.068 184.969 120.996 184.841 120.996H183.486C183.468 120.996 183.45 120.998 183.434 121.001L183.407 121.007C183.372 121.017 183.343 121.033 183.321 121.056C183.308 121.069 183.298 121.083 183.29 121.1C183.28 121.122 183.274 121.147 183.274 121.174V121.708C183.274 121.815 183.359 121.886 183.486 121.886Z" fill="#3F3D56"/>
<path d="M180.393 121.886H179.037C178.91 121.886 178.825 121.815 178.825 121.708V121.174C178.825 121.068 178.91 120.996 179.037 120.996H180.393C180.437 120.996 180.476 121.005 180.508 121.021C180.537 121.034 180.56 121.054 180.577 121.078C180.595 121.105 180.605 121.138 180.605 121.174V121.708C180.605 121.758 180.587 121.8 180.554 121.831C180.517 121.866 180.461 121.886 180.393 121.886Z" fill="#3F3D56"/>
<path d="M175.479 121.886H176.834C176.85 121.886 176.867 121.884 176.885 121.879C176.912 121.872 176.941 121.859 176.966 121.841C177.011 121.81 177.046 121.764 177.046 121.708V121.174C177.046 121.136 177.035 121.103 177.016 121.075C176.997 121.049 176.969 121.028 176.935 121.014C176.906 121.003 176.872 120.996 176.834 120.996H175.479C175.351 120.996 175.267 121.068 175.267 121.174V121.708C175.267 121.815 175.351 121.886 175.479 121.886Z" fill="#3F3D56"/>
<path d="M173.17 121.886H171.136C171.064 121.886 171.001 121.876 170.951 121.858C170.937 121.852 170.923 121.847 170.911 121.84C170.883 121.825 170.86 121.807 170.845 121.786C170.827 121.763 170.818 121.737 170.818 121.708V121.174C170.818 121.121 170.851 121.076 170.907 121.045C170.962 121.014 171.041 120.996 171.136 120.996H173.17C173.243 120.996 173.306 121.007 173.357 121.026C173.439 121.056 173.487 121.108 173.487 121.174V121.708C173.487 121.731 173.481 121.753 173.47 121.773C173.447 121.811 173.404 121.841 173.346 121.861C173.298 121.877 173.238 121.886 173.17 121.886Z" fill="#3F3D56"/>
<path d="M197.735 124.555H212.407C212.543 124.555 212.633 124.484 212.633 124.377V123.843C212.633 123.737 212.543 123.665 212.407 123.665H197.735C197.599 123.665 197.509 123.737 197.509 123.843V124.377C197.509 124.484 197.599 124.555 197.735 124.555Z" fill="#3F3D56"/>
<path d="M181.673 85.4092H180.427C180.027 85.4092 179.715 85.7984 179.715 86.2989C179.715 86.7993 180.027 87.1885 180.427 87.1885H181.673C182.073 87.1885 182.384 86.7993 182.384 86.2989C182.384 86.0827 182.326 85.8875 182.228 85.7352C182.099 85.5347 181.9 85.4092 181.673 85.4092Z" fill="white"/>
<path d="M196.797 85.4092H195.551C195.36 85.4092 195.182 85.5217 195.051 85.7037C194.985 85.7949 194.931 85.9035 194.893 86.0239C194.881 86.0654 194.87 86.1082 194.861 86.1522C194.852 86.1998 194.844 86.2487 194.84 86.2989C194.84 86.7993 195.151 87.1885 195.551 87.1885H196.797C197.197 87.1885 197.509 86.7993 197.509 86.2989C197.509 85.7984 197.197 85.4092 196.797 85.4092Z" fill="white"/>
<path d="M199.11 85.4092H200.356C200.756 85.4092 201.068 85.7984 201.068 86.2989C201.068 86.7993 200.756 87.1885 200.356 87.1885H199.11C198.944 87.1885 198.793 87.1212 198.673 87.0067L198.638 86.9705L198.603 86.9296C198.567 86.884 198.535 86.8332 198.507 86.778L198.49 86.7417L198.472 86.7007C198.425 86.5808 198.399 86.4446 198.399 86.2989C198.415 86.1175 198.466 85.9507 198.542 85.8117C198.614 85.6794 198.707 85.5725 198.815 85.5021C198.906 85.4424 199.006 85.4092 199.11 85.4092Z" fill="white"/>
<path d="M192.311 85.4092H184.023C183.649 85.4092 183.321 85.7984 183.274 86.2989C183.274 86.7993 183.602 87.1885 184.023 87.1885H192.311C192.733 87.1885 193.061 86.7993 193.061 86.2989C193.061 85.7984 192.733 85.4092 192.311 85.4092Z" fill="white"/>
<path d="M204.486 85.4092H212.774C213.195 85.4092 213.523 85.7984 213.523 86.2989C213.523 86.7993 213.195 87.1885 212.774 87.1885H204.486C204.065 87.1885 203.737 86.7993 203.737 86.2989C203.737 85.7984 204.065 85.4092 204.486 85.4092Z" fill="white"/>
<path d="M185.232 88.9679H183.986C183.586 88.9679 183.274 89.1625 183.274 89.4127C183.274 89.663 183.586 89.8576 183.986 89.8576H185.232C185.632 89.8576 185.943 89.663 185.943 89.4127C185.943 89.1625 185.632 88.9679 185.232 88.9679Z" fill="white"/>
<path d="M199.11 88.9679H200.356C200.756 88.9679 201.068 89.1625 201.068 89.4127C201.068 89.663 200.756 89.8576 200.356 89.8576H199.11C198.71 89.8576 198.399 89.663 198.399 89.4127C198.399 89.1625 198.71 88.9679 199.11 88.9679Z" fill="white"/>
<path d="M204.804 88.9679H203.559C203.308 88.9679 203.093 89.0439 202.966 89.1621C202.891 89.2329 202.847 89.3189 202.847 89.4127C202.847 89.4792 202.869 89.542 202.909 89.598C202.936 89.6369 202.973 89.6727 203.016 89.7044C203.146 89.7989 203.339 89.8576 203.559 89.8576H204.804C205.205 89.8576 205.516 89.663 205.516 89.4127C205.516 89.2983 205.451 89.1955 205.342 89.1176C205.213 89.0252 205.022 88.9679 204.804 88.9679Z" fill="white"/>
<path d="M188.472 88.9679H196.76C196.86 88.9679 196.955 88.979 197.041 88.9992C197.12 89.0174 197.192 89.0433 197.254 89.0754C197.338 89.1182 197.404 89.1721 197.449 89.2335C197.488 89.2881 197.509 89.3487 197.509 89.4127C197.509 89.5322 197.434 89.6391 197.31 89.7179C197.174 89.8044 196.98 89.8576 196.76 89.8576H188.472C188.05 89.8576 187.722 89.663 187.722 89.4127C187.769 89.1625 188.05 88.9679 188.472 88.9679Z" fill="white"/>
<path d="M216.333 88.9679H208.045C207.846 88.9679 207.669 89.0111 207.536 89.0828C207.387 89.1634 207.295 89.2802 207.295 89.4127C207.295 89.663 207.623 89.8576 208.045 89.8576H216.333C216.754 89.8576 217.082 89.663 217.082 89.4127C217.082 89.3589 217.067 89.3076 217.039 89.2605C217.016 89.222 216.985 89.1862 216.947 89.1538C216.812 89.0404 216.59 88.9679 216.333 88.9679Z" fill="white"/>
<path d="M188.434 91.6369H189.68C190.08 91.6369 190.391 92.0262 190.391 92.5266C190.391 93.0271 190.08 93.4163 189.68 93.4163H188.434C188.034 93.4163 187.722 93.0271 187.722 92.5266C187.767 92.0262 188.078 91.6369 188.434 91.6369Z" fill="white"/>
<path d="M204.804 91.6369H203.559C203.158 91.6369 202.847 92.0262 202.847 92.5266C202.847 93.0271 203.158 93.4163 203.559 93.4163H204.804C205.205 93.4163 205.516 93.0271 205.516 92.5266C205.516 92.0262 205.205 91.6369 204.804 91.6369Z" fill="white"/>
<path d="M207.117 91.6369H208.363C208.763 91.6369 209.075 92.0262 209.075 92.5266C209.075 93.0271 208.763 93.4163 208.363 93.4163H207.117C206.717 93.4163 206.406 93.0271 206.406 92.5266C206.406 92.3678 206.437 92.2199 206.493 92.0924C206.533 91.999 206.587 91.9165 206.651 91.8481C206.775 91.7158 206.937 91.6369 207.117 91.6369Z" fill="white"/>
<path d="M200.318 91.6369H192.031C191.863 91.6369 191.711 91.698 191.588 91.8031C191.401 91.963 191.281 92.2245 191.281 92.5266C191.281 93.0271 191.609 93.4163 192.031 93.4163H200.318C200.74 93.4163 201.068 93.0271 201.068 92.5266C201.068 92.3424 201.023 92.1732 200.946 92.0329C200.814 91.7922 200.585 91.6369 200.318 91.6369Z" fill="white"/>
<path d="M212.493 91.6369H220.781C221.203 91.6369 221.53 92.0262 221.53 92.5266C221.53 93.0271 221.203 93.4163 220.781 93.4163H212.493C212.072 93.4163 211.744 93.0271 211.744 92.5266C211.791 92.0262 212.118 91.6369 212.493 91.6369Z" fill="white"/>
<path d="M193.239 95.1957H191.993C191.593 95.1957 191.281 95.5849 191.281 96.0853C191.281 96.1955 191.296 96.3002 191.324 96.3964C191.36 96.5208 191.417 96.6314 191.49 96.7215C191.555 96.8026 191.634 96.8673 191.722 96.9109C191.805 96.9524 191.896 96.975 191.993 96.975H193.239C193.639 96.975 193.95 96.5858 193.95 96.0853C193.95 95.5849 193.639 95.1957 193.239 95.1957Z" fill="white"/>
<path d="M207.117 95.1957H208.363C208.763 95.1957 209.075 95.5849 209.075 96.0853C209.075 96.5858 208.763 96.975 208.363 96.975H207.117C206.717 96.975 206.406 96.5858 206.406 96.0853C206.424 95.8825 206.486 95.6978 206.576 95.5501C206.71 95.3334 206.906 95.1957 207.117 95.1957Z" fill="white"/>
<path d="M212.812 95.1957H211.566C211.355 95.1957 211.161 95.3314 211.027 95.5456C210.935 95.6941 210.872 95.8805 210.854 96.0853C210.854 96.5858 211.166 96.975 211.566 96.975H212.812C212.869 96.975 212.925 96.967 212.979 96.9516C213.009 96.9431 213.037 96.9322 213.065 96.9192L213.102 96.9009C213.19 96.8529 213.269 96.7834 213.333 96.6974C213.452 96.5393 213.523 96.3251 213.523 96.0853C213.523 95.5849 213.212 95.1957 212.812 95.1957Z" fill="white"/>
<path d="M196.479 95.1957H204.767C205.188 95.1957 205.516 95.5849 205.516 96.0853C205.516 96.5858 205.188 96.975 204.767 96.975H196.479C196.375 96.975 196.276 96.9513 196.187 96.9081C196.056 96.8445 195.945 96.7383 195.865 96.6029C195.827 96.5402 195.797 96.4711 195.774 96.397C195.745 96.3004 195.73 96.1955 195.73 96.0853C195.73 95.5849 196.057 95.1957 196.479 95.1957Z" fill="white"/>
<path d="M196.797 108.541H195.551C195.331 108.541 195.127 108.616 194.994 108.732L194.968 108.757L194.947 108.778C194.924 108.803 194.905 108.829 194.889 108.857C194.865 108.897 194.848 108.941 194.84 108.986C194.84 109.236 195.151 109.431 195.551 109.431H196.797C197.197 109.431 197.509 109.236 197.509 108.986C197.509 108.844 197.409 108.72 197.25 108.639C197.171 108.599 197.077 108.57 196.973 108.554C196.917 108.545 196.858 108.541 196.797 108.541Z" fill="white"/>
<path d="M199.11 108.541H200.356C200.756 108.541 201.068 108.735 201.068 108.986C201.068 109.236 200.756 109.431 200.356 109.431H199.11C198.71 109.431 198.399 109.236 198.399 108.986C198.443 108.735 198.754 108.541 199.11 108.541Z" fill="white"/>
<path d="M212.774 108.541H204.486C204.065 108.541 203.737 108.735 203.737 108.986C203.737 109.061 203.767 109.132 203.82 109.193C203.853 109.231 203.895 109.266 203.945 109.297C204.08 109.38 204.271 109.431 204.486 109.431H212.774C213.195 109.431 213.523 109.236 213.523 108.986C213.523 108.735 213.195 108.541 212.774 108.541Z" fill="white"/>
<path d="M180.427 108.541H181.673C182.073 108.541 182.384 108.735 182.384 108.986C182.384 109.236 182.073 109.431 181.673 109.431H180.427C180.027 109.431 179.715 109.236 179.715 108.986C179.715 108.888 179.762 108.8 179.843 108.727C179.88 108.694 179.924 108.665 179.974 108.639C180.096 108.578 180.253 108.541 180.427 108.541Z" fill="white"/>
<path d="M192.311 108.541H184.023C183.649 108.541 183.321 108.735 183.274 108.986C183.274 109.236 183.602 109.431 184.023 109.431H192.311C192.733 109.431 193.061 109.236 193.061 108.986C193.061 108.735 192.733 108.541 192.311 108.541Z" fill="white"/>
<path d="M183.986 104.982H185.232C185.41 104.982 185.57 105.059 185.694 105.189C185.847 105.351 185.943 105.594 185.943 105.872C185.943 106.372 185.632 106.761 185.232 106.761H183.986C183.586 106.761 183.274 106.372 183.274 105.872C183.274 105.316 183.586 104.982 183.986 104.982Z" fill="white"/>
<path d="M200.356 104.982H199.11C198.71 104.982 198.399 105.316 198.399 105.872C198.399 106.372 198.71 106.761 199.11 106.761H200.356C200.756 106.761 201.068 106.372 201.068 105.872C201.068 105.371 200.756 104.982 200.356 104.982Z" fill="white"/>
<path d="M203.559 104.982H204.804C205.205 104.982 205.516 105.371 205.516 105.872C205.516 106.372 205.205 106.761 204.804 106.761H203.559C203.158 106.761 202.847 106.372 202.847 105.872C202.847 105.316 203.158 104.982 203.559 104.982Z" fill="white"/>
<path d="M196.76 104.982H188.472C188.05 104.982 187.769 105.371 187.722 105.872C187.722 106.164 187.834 106.417 188.01 106.578C188.068 106.631 188.133 106.674 188.203 106.705C188.253 106.727 188.306 106.743 188.361 106.752C188.398 106.758 188.434 106.761 188.472 106.761H196.76C196.852 106.761 196.939 106.743 197.02 106.709C197.144 106.656 197.252 106.566 197.335 106.45C197.444 106.295 197.509 106.095 197.509 105.872C197.509 105.371 197.181 104.982 196.76 104.982Z" fill="white"/>
<path d="M188.434 101.423H189.68C190.08 101.423 190.391 101.813 190.391 102.313C190.391 102.814 190.08 103.203 189.68 103.203H188.434C188.034 103.203 187.722 102.814 187.722 102.313C187.767 101.813 188.078 101.423 188.434 101.423Z" fill="white"/>
<path d="M204.804 101.423H203.559C203.158 101.423 202.847 101.813 202.847 102.313C202.847 102.814 203.158 103.203 203.559 103.203H204.804C205.205 103.203 205.516 102.814 205.516 102.313C205.516 101.813 205.205 101.423 204.804 101.423Z" fill="white"/>
<path d="M207.117 101.423H208.363C208.763 101.423 209.075 101.813 209.075 102.313C209.075 102.814 208.763 103.203 208.363 103.203H207.117C206.942 103.203 206.784 103.128 206.662 103.002C206.504 102.84 206.406 102.594 206.406 102.313C206.406 101.813 206.717 101.423 207.117 101.423Z" fill="white"/>
<path d="M200.318 101.423H192.031C191.609 101.423 191.281 101.813 191.281 102.313C191.281 102.814 191.609 103.203 192.031 103.203H200.318C200.421 103.203 200.519 103.18 200.607 103.137C200.734 103.077 200.841 102.977 200.921 102.849C200.957 102.791 200.988 102.727 201.011 102.658C201.048 102.553 201.068 102.436 201.068 102.313C201.068 101.813 200.74 101.423 200.318 101.423Z" fill="white"/>
<path d="M191.993 98.7544H193.239C193.639 98.7544 193.95 98.949 193.95 99.1992C193.95 99.4494 193.639 99.6441 193.239 99.6441H191.993C191.593 99.6441 191.281 99.4494 191.281 99.1992C191.281 98.949 191.593 98.7544 191.993 98.7544Z" fill="white"/>
<path d="M208.363 98.7544H207.117C206.762 98.7544 206.45 98.949 206.406 99.1992C206.406 99.4494 206.717 99.6441 207.117 99.6441H208.363C208.763 99.6441 209.075 99.4494 209.075 99.1992C209.075 99.1097 209.035 99.0272 208.965 98.9581C208.84 98.8345 208.62 98.7544 208.363 98.7544Z" fill="white"/>
<path d="M211.566 98.7544H212.812C213.212 98.7544 213.523 98.949 213.523 99.1992C213.523 99.4494 213.212 99.6441 212.812 99.6441H211.566C211.166 99.6441 210.854 99.4494 210.854 99.1992C210.898 98.949 211.21 98.7544 211.566 98.7544Z" fill="white"/>
<path d="M204.767 98.7544H196.479C196.057 98.7544 195.73 98.949 195.73 99.1992C195.73 99.4494 196.057 99.6441 196.479 99.6441H204.767C205.188 99.6441 205.516 99.4494 205.516 99.1992C205.516 98.949 205.188 98.7544 204.767 98.7544Z" fill="white"/>
<path d="M172.5 146.797L166.37 136.948L185.682 121.357L193.656 112.395C196.928 108.707 202.505 108.427 206.146 111.741C207.299 112.768 208.128 114.122 208.635 115.569C210.11 120.143 207.759 125.091 203.289 126.772L190.706 131.487L172.5 146.797Z" fill="#BF8573"/>
<path d="M52.4912 75.4592V122.776H85.4094V75.4592C85.4094 74.7668 84.9515 74.1205 84.3106 73.9358C84.1732 73.8897 83.9901 73.8435 83.8527 73.8435H54.1394C53.178 73.8435 52.4912 74.5821 52.4912 75.4592ZM65.3105 91.7084C65.3105 89.7696 66.9129 88.2001 68.8358 88.2001C70.7587 88.2001 72.3154 89.7696 72.3154 91.7084V97.2018C72.3154 99.1406 70.7129 100.756 68.79 100.71C66.8671 100.71 65.3105 99.1406 65.3105 97.2018V91.7084Z" fill="#2F2E41"/>
<path d="M51.6016 121.886V126.365C51.6016 126.862 52.023 127.224 52.4912 127.224H84.5197C85.0348 127.224 85.4094 126.817 85.4094 126.365V121.886H51.6016Z" fill="#3F3D56"/>
<path d="M0 4.17322V91.0225C0 93.341 1.84259 95.1957 4.14582 95.1957H131.975C134.278 95.1957 136.121 93.341 136.121 91.0225V4.17322C136.121 1.85476 134.278 0 131.975 0H4.14582C1.84259 0 0 1.85476 0 4.17322Z" fill="#323232"/>
<path d="M2.66895 4.89083V89.415C2.66895 90.6648 3.68743 91.6369 4.8911 91.6369H131.23C132.48 91.6369 133.452 90.6185 133.452 89.415V4.89083C133.452 3.64102 132.433 2.66895 131.23 2.66895H4.8911C3.64114 2.66895 2.66895 3.64102 2.66895 4.89083Z" fill="white"/>
<path d="M26.1378 126.735C26.4169 127.046 26.789 127.224 27.2076 127.224H102.697C103.441 127.224 104.093 126.646 104.093 125.89C104.093 125.801 104.093 125.712 104.046 125.623L102.883 120.285C102.79 119.84 102.465 119.484 102 119.306C101.86 119.262 101.674 119.217 101.488 119.217H28.3704C28.1843 119.217 28.0448 119.262 27.8587 119.306C27.4401 119.484 27.1146 119.84 26.975 120.285L25.8122 125.623C25.7657 126.023 25.8587 126.423 26.1378 126.735Z" fill="#2F2E41"/>
<path d="M126.764 14.2349H9.35685C9.08093 14.2349 8.89697 14.0125 8.89697 13.7901C8.89697 13.5676 9.08093 13.3452 9.35685 13.3452H126.764C127.04 13.3452 127.224 13.5676 127.224 13.7901C127.224 14.057 126.994 14.2349 126.764 14.2349Z" fill="#3F3D56"/>
<path d="M36.0318 11.5659C37.7516 11.5659 39.1457 10.1718 39.1457 8.45202C39.1457 6.73227 37.7516 5.33813 36.0318 5.33813C34.3121 5.33813 32.918 6.73227 32.918 8.45202C32.918 10.1718 34.3121 11.5659 36.0318 11.5659Z" fill="#BF5A60"/>
<path d="M12.1139 11.5659C13.8336 11.5659 15.2278 10.1718 15.2278 8.45202C15.2278 6.73227 13.8336 5.33813 12.1139 5.33813C10.3941 5.33813 9 6.73227 9 8.45202C9 10.1718 10.3941 11.5659 12.1139 11.5659Z" fill="#36C0CD"/>
<path d="M24.1139 11.5659C25.8336 11.5659 27.2278 10.1718 27.2278 8.45202C27.2278 6.73227 25.8336 5.33813 24.1139 5.33813C22.3941 5.33813 21 6.73227 21 8.45202C21 10.1718 22.3941 11.5659 24.1139 11.5659Z" fill="#F6A436"/>
<path d="M121.362 6.22778H114.403C114.117 6.22778 113.879 6.42998 113.879 6.67262C113.879 6.91526 114.117 7.11746 114.403 7.11746H121.362C121.648 7.11746 121.886 6.91526 121.886 6.67262C121.886 6.38954 121.648 6.22778 121.362 6.22778Z" fill="#3F3D56"/>
<path d="M121.362 8.00708H114.403C114.117 8.00708 113.879 8.20928 113.879 8.45192C113.879 8.69456 114.117 8.89676 114.403 8.89676H121.362C121.648 8.89676 121.886 8.69456 121.886 8.45192C121.886 8.20928 121.648 8.00708 121.362 8.00708Z" fill="#3F3D56"/>
<path d="M121.362 9.78638H114.403C114.117 9.78638 113.879 10.1908 113.879 10.6761C113.879 11.1613 114.117 11.5657 114.403 11.5657H121.362C121.648 11.5657 121.886 11.1613 121.886 10.6761C121.886 10.1099 121.648 9.78638 121.362 9.78638Z" fill="#3F3D56"/>
<path d="M62.0007 40.0356H82.1271C82.9467 40.0356 83.6297 40.7702 83.6297 41.6518V43.7576C83.6297 44.6391 82.9467 45.3737 82.1271 45.3737H62.0007C61.1811 45.3737 60.498 44.6391 60.498 43.7576V41.6518C60.5436 40.7702 61.1811 40.0356 62.0007 40.0356Z" fill="#A4A4A4"/>
<path d="M49.5635 49.822H93.6744C94.5041 49.822 95.1955 50.5566 95.1955 51.4381V53.544C95.1955 54.4255 94.5041 55.1601 93.6744 55.1601H49.5635C48.7339 55.1601 48.0425 54.4255 48.0425 53.544V51.4381C48.0425 50.5566 48.7339 49.822 49.5635 49.822Z" fill="#E6E6E6"/>
<path d="M49.5635 60.4983H93.6744C94.5041 60.4983 95.1955 61.1105 95.1955 61.845V63.5999C95.1955 64.3345 94.5041 64.9467 93.6744 64.9467H49.5635C48.7339 64.9467 48.0425 64.3345 48.0425 63.5999V61.845C48.0425 61.1105 48.7339 60.4983 49.5635 60.4983Z" fill="#E6E6E6"/>
<path d="M73.8433 89.9566L73.936 90.2272L76.9503 97.88L80.4284 106.731L86.9672 123.351L87.0135 125.941L87.4773 146.696L86.1324 149.518L87.6628 154.117C87.6628 154.117 86.9672 147.16 83.2108 151.141C81.0776 153.421 78.6198 155.74 76.5793 157.944C79.5473 158.948 82.5616 159.837 85.6223 160.649C86.2716 160.842 86.9672 160.997 87.6164 161.152C87.7555 161.19 87.8946 161.229 88.0338 161.268C98.1897 163.78 108.67 165.171 119.29 165.442C119.847 165.442 120.357 165.48 120.913 165.48C121.099 165.48 121.284 165.48 121.47 165.48C122.072 165.48 122.629 165.48 123.232 165.48C124.438 165.48 125.597 165.48 126.803 165.442C135.567 165.249 144.286 164.244 152.819 162.504C152.772 159.567 152.587 156.166 152.355 152.494C152.262 150.716 149.851 148.745 149.712 146.889C149.619 145.459 151.752 144.145 151.613 142.715C150.871 133.903 149.99 137.265 149.341 131.043C149.294 130.424 149.201 129.844 149.155 129.265C148.738 125.245 148.413 122.733 148.413 122.733L151.242 107.775L155.694 84.3136L155.369 83.8498L154.998 83.6952L131.44 73.9551L130.142 71.2109C129.4 69.5876 127.498 68.544 125.458 68.544L109.922 68.5054C108.299 68.5054 106.769 69.1624 105.795 70.2447L101.575 75.1147L73.8433 89.9566Z" fill="#3F3D56"/>
<path d="M89.8575 120.944L86.5337 127.556L84.2596 132.086L80.3672 151.107L78.3992 153.025L76.7373 146.168L59.2436 149.801C58.675 146.821 59.0686 149.882 58.7188 146.617C58.8062 146.535 58.9374 146.413 59.0249 146.331C59.2873 146.086 59.5497 145.841 59.5497 145.637C59.331 134.372 59.9433 115.23 64.929 103.597C65.7162 101.72 66.7658 99.9237 67.9904 98.2502C68.0779 98.1278 68.1653 98.0053 68.2966 97.8829C70.6145 94.8625 72.0577 91.9238 74.1132 89.8014L74.1569 89.7605L88.3268 82.7402L88.9391 98.6992L89.3765 110.168L89.8575 120.944Z" fill="#3F3D56"/>
<path d="M144.128 123.161L148.561 131.375L150.102 134.248L154.255 153.103L156.308 155.005L158.082 148.207L158.922 148.046L174.089 145.335L178.523 157.473C180.576 154.52 179.923 150.716 176.983 148.369C176.703 148.127 176.423 147.884 176.423 147.681C176.656 134.572 175.769 110.578 167.369 100.705C164.709 97.5893 163.122 94.4737 160.789 92.2888L155.142 84.2773L154.815 83.7917L154.442 83.6299L144.128 123.161Z" fill="#3F3D56"/>
<path d="M117.883 64.0569C129.429 64.0569 138.79 54.6963 138.79 43.1494C138.79 31.6025 129.429 22.2419 117.883 22.2419C106.336 22.2419 96.9751 31.6025 96.9751 43.1494C96.9751 54.6963 106.336 64.0569 117.883 64.0569Z" fill="#BF8573"/>
<path d="M145.479 28.5712C145.159 28.2445 144.702 28.0111 144.245 28.0111L144.565 27.1241C144.885 26.2839 144.474 25.3036 143.605 25.0235C143.331 24.9302 143.011 24.8835 142.737 24.9302L141.64 25.1636L141.732 24.4167C141.869 23.5298 141.229 22.6895 140.361 22.5495C140.087 22.5028 139.812 22.5495 139.584 22.6429C139.081 22.8296 138.533 22.7829 138.121 22.5495C137.664 22.3161 137.345 21.8493 137.253 21.3358L136.888 19.422L136.842 19.3286C134.968 16.1077 131.312 13.7737 126.879 12.8868C122.903 12.1399 118.836 12.5133 114.952 12.8868C113.398 13.0268 111.661 13.2135 110.199 14.1005C108.965 14.894 107.914 16.4344 108.142 18.0216C104.258 16.8079 100.145 19.2352 98.0883 22.2694C95.6662 25.9105 95.2549 30.4384 95.2092 33.9861C95.0264 42.3885 96.7173 49.2504 100.236 54.3852C100.51 54.7586 100.556 55.5522 101.059 55.7856L100.967 55.5989C101.516 55.8789 102.11 56.3457 101.881 56.8592C101.287 58.3063 105.355 61.4805 108.234 62.5075C113.489 64.4214 120.527 64.2813 125.417 63.5811L125.6 62.4141C127.382 62.1807 128.616 61.7139 128.981 60.967C129.621 60.4069 130.124 59.9401 130.581 59.4733C130.581 59.4733 130.627 59.4733 130.627 59.4266C132.866 57.2327 133.369 56.019 133.597 54.1051C133.826 52.2379 133.414 50.3707 133.003 48.6902C141.549 50.044 129.621 39.3543 137.619 37.3004C137.71 37.2537 137.802 37.2537 137.893 37.2537C138.121 37.207 138.35 37.1603 138.578 37.067C139.675 36.7869 140.681 36.3201 141.64 35.7132C143.88 34.3128 144.611 32.4923 145.753 30.3917C146.028 29.8316 145.936 29.0847 145.479 28.5712Z" fill="#323232"/>
<path d="M190.391 127.921C190.391 128.618 190.391 129.547 190.345 130.709C190.345 130.863 190.345 131.018 190.345 131.212C190.299 133.38 190.207 135.161 190.115 137.174C190.115 137.329 190.115 137.445 190.115 137.6C189.977 140.388 189.792 143.679 189.423 148.828C188.778 158.391 187.625 150.144 186.518 153.474C186.472 153.629 186.426 153.822 186.334 154.054C186.15 154.906 185.873 155.719 185.458 156.494C184.859 156.803 184.213 157.074 183.614 157.384C181.862 158.197 180.11 158.971 178.311 159.746C177.297 160.172 176.283 160.559 175.268 160.985C175.13 161.062 174.946 161.101 174.807 161.178C169.597 163.191 164.249 164.895 158.762 166.327C157.702 166.598 156.641 166.869 155.535 167.102C154.428 167.373 153.275 167.605 152.169 167.837C143.685 169.58 135.017 170.586 126.303 170.78C125.15 170.819 123.952 170.819 122.753 170.819C122.153 170.819 121.6 170.819 121.001 170.819C120.816 170.819 120.632 170.819 120.447 170.819C119.94 170.819 119.387 170.819 118.834 170.78C108.321 170.509 97.8551 169.076 87.8038 166.598L87.3888 166.482C86.7433 166.327 86.0517 166.134 85.4062 165.979C82.3632 165.166 79.3662 164.276 76.4154 163.269C74.1562 162.495 71.943 161.682 69.7299 160.83C69.7299 160.83 69.6838 160.83 69.6838 160.791C69.2227 160.597 68.7617 160.443 68.3006 160.249C68.2545 160.21 68.1623 160.21 68.1162 160.172C66.4102 159.475 64.7043 158.739 62.9983 157.965C61.569 155.216 59.5864 154.713 58.3415 152.312C57.9727 151.615 57.7421 150.841 57.5577 150.105C57.5577 150.105 57.5577 150.105 57.5577 150.067C57.0044 147.511 57.696 151.499 57.5577 150.067C57.5577 150.028 57.5577 149.989 57.5577 149.912C57.5577 149.757 57.5116 149.602 57.5116 149.408C55.944 136.439 56.0362 121.61 55.3446 109.415C55.2985 108.64 55.2524 107.866 55.2063 107.13C55.2063 106.898 55.1602 106.666 55.1602 106.434C55.2063 106.356 55.2063 106.279 55.2524 106.24C55.2524 106.201 55.2524 106.201 55.2985 106.163C55.2985 106.124 55.3446 106.124 55.3446 106.085C55.3446 106.085 55.3446 106.046 55.3907 106.046V106.008C55.4368 105.969 55.4829 105.891 55.529 105.853C55.529 105.814 55.5751 105.814 55.5751 105.775C55.5751 105.737 55.6212 105.737 55.6212 105.737L55.6673 105.698L55.7134 105.659C55.7134 105.659 55.7134 105.62 55.7595 105.62C55.8057 105.582 55.8518 105.543 55.8979 105.543C56.0823 105.427 56.2206 105.311 56.405 105.195C56.4511 105.156 56.5434 105.117 56.5895 105.078C57.0505 104.846 57.5577 104.653 58.0649 104.498C58.2493 104.459 58.4337 104.382 58.6182 104.343C58.6643 104.343 58.7565 104.304 58.8026 104.304C58.8948 104.265 58.987 104.265 59.1253 104.227C59.6325 104.111 60.2319 103.994 60.8313 103.878C60.9235 103.878 60.9696 103.84 61.0618 103.84C61.154 103.84 61.2924 103.801 61.3846 103.801C61.5229 103.762 61.7073 103.762 61.8457 103.723C63.2289 103.53 64.7504 103.414 66.5024 103.336C66.6869 103.336 66.8252 103.336 66.9635 103.298C67.1479 103.298 67.3324 103.298 67.5168 103.259C67.7012 103.259 67.8395 103.259 68.024 103.259C68.2084 103.259 68.3467 103.259 68.5311 103.259C68.9922 103.259 69.4533 103.22 69.9604 103.22C71.3436 103.181 72.8191 103.22 74.3406 103.22C75.0322 103.22 75.7699 103.259 76.5537 103.298C76.5998 103.298 76.6459 103.298 76.692 103.298C77.3375 103.298 77.983 103.336 78.6746 103.375C79.1357 103.375 79.5968 103.414 80.1039 103.452C80.565 103.491 80.98 103.491 81.4411 103.53C81.8099 103.53 82.1327 103.569 82.5015 103.607C82.8243 103.607 83.1009 103.646 83.4236 103.646L83.8386 103.685C84.0691 103.685 84.2997 103.723 84.5302 103.723C85.0374 103.762 85.5446 103.801 86.0517 103.84C86.5589 103.878 87.0661 103.917 87.6194 103.956C88.1726 103.994 88.6798 104.033 89.187 104.072C89.2331 104.072 89.2792 104.072 89.3253 104.072C89.7864 104.111 90.2936 104.149 90.7546 104.188C90.8468 104.188 90.9852 104.188 91.0774 104.227C91.5384 104.265 91.9995 104.304 92.4606 104.343C92.5989 104.343 92.7372 104.382 92.8755 104.382C93.2444 104.42 93.6132 104.459 93.9821 104.498C94.4432 104.536 94.9504 104.575 95.4575 104.653C95.8264 104.691 96.1952 104.73 96.5641 104.769C97.1635 104.846 97.7629 104.885 98.3161 104.962C98.5467 105.001 98.7772 105.001 99.0077 105.04C100.714 105.233 102.42 105.427 104.172 105.62C106.8 105.93 109.474 106.279 112.194 106.627C114.915 107.014 117.635 107.401 120.355 107.789C121.047 107.905 121.738 107.982 122.43 108.098C122.753 108.137 123.076 108.214 123.352 108.253C123.905 108.331 124.413 108.408 124.966 108.524C125.519 108.602 126.026 108.679 126.58 108.795C127.225 108.911 127.871 108.989 128.516 109.105C132.712 109.802 136.861 110.537 140.965 111.312C141.657 111.428 142.302 111.583 142.948 111.699C144.285 111.97 145.576 112.202 146.913 112.473C147.282 112.551 147.604 112.628 147.973 112.706C148.849 112.899 149.725 113.093 150.601 113.286L150.74 113.325C151.385 113.441 152.031 113.596 152.63 113.712C154.105 114.022 155.581 114.37 157.01 114.68C157.978 114.912 158.901 115.106 159.823 115.338C161.206 115.687 162.589 116.035 163.88 116.345C164.203 116.422 164.526 116.5 164.848 116.616C165.817 116.887 166.785 117.119 167.707 117.39C168.445 117.584 169.182 117.777 169.874 118.01C170.566 118.203 171.257 118.436 171.949 118.629C172.41 118.745 172.825 118.9 173.24 119.016C173.839 119.21 174.485 119.403 175.084 119.597C175.268 119.674 175.453 119.713 175.637 119.791C175.729 119.829 175.868 119.868 175.96 119.907C176.191 119.984 176.421 120.062 176.606 120.139C176.836 120.216 177.02 120.294 177.251 120.371C177.482 120.449 177.666 120.526 177.85 120.604C178.081 120.681 178.265 120.759 178.45 120.836C178.634 120.913 178.773 120.952 178.957 121.03C179.28 121.146 179.602 121.262 179.925 121.378C180.064 121.455 180.248 121.494 180.386 121.572L180.755 121.726C180.801 121.765 180.847 121.765 180.893 121.804C180.986 121.843 181.124 121.881 181.262 121.959C181.539 122.075 181.816 122.191 182.046 122.268C182.415 122.423 182.738 122.578 183.06 122.694C183.383 122.849 183.706 123.004 184.029 123.12C184.075 123.159 184.121 123.159 184.167 123.198C184.259 123.236 184.305 123.275 184.398 123.275C184.628 123.391 184.859 123.507 185.089 123.624C185.55 123.856 185.965 124.088 186.334 124.32C186.426 124.359 186.518 124.437 186.611 124.475C186.887 124.669 187.164 124.824 187.441 124.979C187.533 125.017 187.625 125.095 187.671 125.133C187.763 125.172 187.809 125.25 187.902 125.288C188.132 125.482 188.363 125.637 188.547 125.792C188.593 125.83 188.686 125.908 188.732 125.946C188.778 125.946 188.778 125.985 188.824 126.024C188.916 126.101 189.008 126.179 189.054 126.256C189.054 126.256 189.054 126.295 189.1 126.295C189.193 126.411 189.331 126.527 189.423 126.605C189.469 126.643 189.515 126.721 189.562 126.76C189.608 126.837 189.654 126.876 189.7 126.953C189.746 126.992 189.792 127.069 189.792 127.108C189.884 127.263 189.977 127.379 190.023 127.534C190.069 127.65 190.115 127.727 190.161 127.844C190.345 127.727 190.391 127.844 190.391 127.921Z" fill="#1E1E2A"/>
</svg>
