<svg width="260" height="260" viewBox="0 0 260 260" fill="none" xmlns="http://www.w3.org/2000/svg">
<g clip-path="url(#clip0_1111_3)">
<path d="M238.265 101.562C238.273 115.661 234.188 129.458 226.503 141.279L187.18 73.9282H232.831C236.443 82.6919 238.29 92.0828 238.265 101.562Z" fill="#38C1CE"/>
<path d="M230.471 68.7447H152.468L175.383 29.4211C187.053 31.0558 198.155 35.4847 207.747 42.3311C217.338 49.1775 225.134 58.2388 230.471 68.7447Z" fill="#F5A437"/>
<path d="M169.699 28.5989L130.375 96.5214L107.246 57.3766C114.038 48.4248 122.811 41.1679 132.877 36.1751C142.943 31.1822 154.03 28.589 165.266 28.5989C166.768 28.5989 168.269 28.5989 169.699 28.5989Z" fill="#BF5A60"/>
<path d="M143.316 129.196H97.7368C93.2918 118.333 91.533 106.558 92.6096 94.8705C93.6863 83.183 97.5666 71.9276 103.921 62.0597L143.316 129.196Z" fill="#38C1CE"/>
<path d="M178.279 134.343L155.507 173.917C143.759 172.294 132.58 167.845 122.929 160.953C113.278 154.06 105.443 144.929 100.096 134.343H178.279Z" fill="#F5A437"/>
<path d="M223.215 145.926C216.399 154.821 207.627 162.028 197.578 166.987C187.528 171.946 176.472 174.526 165.266 174.525C163.908 174.525 162.549 174.525 161.191 174.525L200.193 106.602L223.215 145.926Z" fill="#BF5A60"/>
<path d="M0 260V0H70.5679V203.124H260.036V260H0Z" fill="#323232"/>
</g>
<defs>
<clipPath id="clip0_1111_3">
<rect width="260" height="260" fill="white"/>
</clipPath>
</defs>
</svg>
