<svg width="250" height="171" viewBox="0 0 250 171" fill="none" xmlns="http://www.w3.org/2000/svg">
<path d="M137.47 36H129.884C129.408 36 129 36.4082 129 36.8844V44.4702C129 44.9464 129.408 45.3546 129.884 45.3546H137.47C137.946 45.3546 138.355 44.9464 138.355 44.4702V36.8844C138.355 36.4082 137.946 36.034 137.47 36Z" fill="#BF5A60"/>
<path d="M137.47 48.9263H129.884C129.408 48.9263 129 49.3345 129 49.8107V57.3964C129 57.8727 129.408 58.2809 129.884 58.2809H137.47C137.946 58.2809 138.355 57.8727 138.355 57.3964V49.8107C138.355 49.3345 137.946 48.9263 137.47 48.9263Z" fill="#E6E6E6"/>
<path d="M137.47 61.8186H129.884C129.408 61.8186 129 62.2268 129 62.703V70.2888C129 70.765 129.408 71.1732 129.884 71.1732H137.47C137.946 71.1732 138.355 70.765 138.355 70.2888V62.703C138.355 62.2268 137.946 61.8526 137.47 61.8186Z" fill="#E6E6E6"/>
<path d="M138.355 75.4595C138.287 75.0513 137.912 74.7451 137.47 74.7451H129.884C129.408 74.7451 129 75.1533 129 75.6296V83.2153C129 83.6915 129.408 84.0997 129.884 84.0997H137.47C137.946 84.0997 138.355 83.6915 138.355 83.2153V75.6296C138.355 75.5615 138.355 75.5275 138.355 75.4595Z" fill="#E6E6E6"/>
<path d="M137.81 87.7055C137.708 87.6715 137.572 87.6375 137.47 87.6375H129.884C129.408 87.6375 129 88.0457 129 88.5219V96.1076C129 96.5838 129.374 96.992 129.884 96.992H137.47C137.946 96.992 138.355 96.5838 138.355 96.1076V88.5219C138.355 88.1817 138.15 87.8756 137.81 87.7055Z" fill="#E6E6E6"/>
<path d="M153.39 36H145.804C145.328 36 144.919 36.4082 144.919 36.8844V44.4702C144.919 44.9464 145.328 45.3546 145.804 45.3546H153.39C153.866 45.3546 154.274 44.9464 154.274 44.4702V36.8844C154.274 36.4082 153.866 36.034 153.39 36Z" fill="#E6E6E6"/>
<path d="M153.39 48.9263H145.804C145.328 48.9263 144.919 49.3345 144.919 49.8107V57.3964C144.919 57.8727 145.328 58.2809 145.804 58.2809H153.39C153.866 58.2809 154.274 57.8727 154.274 57.3964V49.8107C154.274 49.3345 153.866 48.9263 153.39 48.9263Z" fill="#F6A436"/>
<path d="M153.39 61.8186H145.804C145.328 61.8186 144.919 62.2268 144.919 62.703V70.2888C144.919 70.765 145.328 71.1732 145.804 71.1732H153.39C153.866 71.1732 154.274 70.765 154.274 70.2888V62.703C154.274 62.2268 153.866 61.8526 153.39 61.8186Z" fill="#38C1CE"/>
<path d="M153.39 74.7451H145.804C145.43 74.7451 145.09 74.9832 144.953 75.3574C144.919 75.4595 144.919 75.5275 144.919 75.6296V83.2153C144.919 83.6915 145.328 84.0997 145.804 84.0997H153.39C153.866 84.0997 154.274 83.6915 154.274 83.2153V75.6296C154.274 75.1533 153.866 74.7451 153.39 74.7451Z" fill="#A4A4A4"/>
<path d="M153.39 87.6375H145.804C145.328 87.6375 144.919 88.0457 144.919 88.5219V96.1076C144.919 96.5838 145.328 96.992 145.804 96.992H153.39C153.866 96.992 154.274 96.5838 154.274 96.1076V88.5219C154.274 88.0457 153.866 87.6715 153.39 87.6375Z" fill="#E6E6E6"/>
<path d="M169.275 36H161.69C161.213 36 160.805 36.4082 160.805 36.8844V44.4702C160.805 44.9464 161.213 45.3546 161.69 45.3546H169.275C169.752 45.3546 170.16 44.9464 170.16 44.4702V36.8844C170.16 36.4082 169.786 36.034 169.275 36Z" fill="#38C1CE"/>
<path d="M169.275 48.9263H161.69C161.213 48.9263 160.805 49.3345 160.805 49.8107V57.3964C160.805 57.8727 161.213 58.2809 161.69 58.2809H169.275C169.752 58.2809 170.16 57.8727 170.16 57.3964V49.8107C170.16 49.3345 169.786 48.9263 169.275 48.9263Z" fill="#BF5A60"/>
<path d="M169.275 61.8186H161.69C161.213 61.8186 160.805 62.2268 160.805 62.703V70.2888C160.805 70.765 161.213 71.1732 161.69 71.1732H169.275C169.752 71.1732 170.16 70.765 170.16 70.2888V62.703C170.16 62.2268 169.786 61.8526 169.275 61.8186Z" fill="#EEEEEE"/>
<path d="M169.275 74.7451H161.69C161.213 74.7451 160.805 75.1533 160.805 75.6296V83.2153C160.805 83.6915 161.213 84.0997 161.69 84.0997H169.275C169.752 84.0997 170.16 83.6915 170.16 83.2153V75.6296C170.16 75.1533 169.786 74.7451 169.275 74.7451Z" fill="#A4A4A4"/>
<path d="M169.275 87.6375H161.69C161.213 87.6375 160.805 88.0457 160.805 88.5219V96.1076C160.805 96.5838 161.213 96.992 161.69 96.992H169.275C169.752 96.992 170.16 96.5838 170.16 96.1076V88.5219C170.16 88.0457 169.786 87.6715 169.275 87.6375Z" fill="#F6A436"/>
<path d="M185.195 36H177.609C177.133 36 176.725 36.4082 176.725 36.8844V44.4702C176.725 44.9464 177.133 45.3546 177.609 45.3546H185.195C185.671 45.3546 186.079 44.9464 186.079 44.4702V36.8844C186.079 36.4082 185.671 36.034 185.195 36Z" fill="#A4A4A4"/>
<path d="M185.195 48.9263H177.609C177.133 48.9263 176.725 49.3345 176.725 49.8107V57.3964C176.725 57.8727 177.133 58.2809 177.609 58.2809H185.195C185.671 58.2809 186.079 57.8727 186.079 57.3964V49.8107C186.079 49.3345 185.671 48.9263 185.195 48.9263Z" fill="#F6A436"/>
<path d="M185.195 61.8186H177.609C177.133 61.8186 176.725 62.2268 176.725 62.703V70.2888C176.725 70.765 177.133 71.1732 177.609 71.1732H185.195C185.671 71.1732 186.079 70.765 186.079 70.2888V62.703C186.079 62.2268 185.671 61.8526 185.195 61.8186Z" fill="#EEEEEE"/>
<path d="M185.195 74.7451H177.609C177.133 74.7451 176.725 75.1533 176.725 75.6296V83.2153C176.725 83.6915 177.133 84.0997 177.609 84.0997H185.195C185.671 84.0997 186.079 83.6915 186.079 83.2153V75.6296C186.079 75.1533 185.671 74.7451 185.195 74.7451Z" fill="#BF5A60"/>
<path d="M185.195 87.6375H177.609C177.133 87.6375 176.725 88.0457 176.725 88.5219V96.1076C176.725 96.5838 177.133 96.992 177.609 96.992H185.195C185.671 96.992 186.079 96.5838 186.079 96.1076V88.5219C186.079 88.0457 185.671 87.6715 185.195 87.6375Z" fill="#A4A4A4"/>
<path d="M201.081 36H193.496C193.02 36 192.611 36.4082 192.611 36.8844V44.4702C192.611 44.9464 193.02 45.3546 193.496 45.3546H201.081C201.558 45.3546 201.966 44.9464 201.966 44.4702V36.8844C201.966 36.4082 201.592 36.034 201.081 36Z" fill="#BF5A60"/>
<path d="M201.081 48.9263H193.496C193.02 48.9263 192.611 49.3345 192.611 49.8107V57.3964C192.611 57.8727 193.02 58.2809 193.496 58.2809H201.081C201.558 58.2809 201.966 57.8727 201.966 57.3964V49.8107C201.966 49.3345 201.592 48.9263 201.081 48.9263Z" fill="#EEEEEE"/>
<path d="M201.081 61.8186H193.496C193.02 61.8186 192.611 62.2268 192.611 62.703V70.2888C192.611 70.765 193.02 71.1732 193.496 71.1732H201.081C201.558 71.1732 201.966 70.765 201.966 70.2888V62.703C201.966 62.2268 201.592 61.8526 201.081 61.8186Z" fill="#EEEEEE"/>
<path d="M201.081 74.7451H193.496C193.02 74.7451 192.611 75.1533 192.611 75.6296V83.2153C192.611 83.6915 193.02 84.0997 193.496 84.0997H201.081C201.558 84.0997 201.966 83.6915 201.966 83.2153V75.6296C201.966 75.1533 201.592 74.7451 201.081 74.7451Z" fill="#38C1CE"/>
<path d="M201.081 87.6375H193.496C193.02 87.6375 192.611 88.0457 192.611 88.5219V96.1076C192.611 96.5838 193.02 96.992 193.496 96.992H201.081C201.558 96.992 201.966 96.5838 201.966 96.1076V88.5219C201.966 88.0457 201.592 87.6715 201.081 87.6375Z" fill="#E6E6E6"/>
<path d="M217 36H209.415C208.938 36 208.53 36.4082 208.53 36.8844V44.4702C208.53 44.9464 208.938 45.3546 209.415 45.3546H217C217.477 45.3546 217.885 44.9464 217.885 44.4702V36.8844C217.885 36.4082 217.477 36.034 217 36Z" fill="#EEEEEE"/>
<path d="M217 48.9263H209.415C208.938 48.9263 208.53 49.3345 208.53 49.8107V57.3964C208.53 57.8727 208.938 58.2809 209.415 58.2809H217C217.477 58.2809 217.885 57.8727 217.885 57.3964V49.8107C217.885 49.3345 217.477 48.9263 217 48.9263Z" fill="#F6A436"/>
<path d="M217 61.8186H209.415C208.938 61.8186 208.53 62.2268 208.53 62.703V70.2888C208.53 70.765 208.938 71.1732 209.415 71.1732H217C217.477 71.1732 217.885 70.765 217.885 70.2888V62.703C217.885 62.2268 217.477 61.8526 217 61.8186Z" fill="#A4A4A4"/>
<path d="M217 74.7451H209.415C208.938 74.7451 208.53 75.1533 208.53 75.6296V83.2153C208.53 83.6915 208.938 84.0997 209.415 84.0997H217C217.477 84.0997 217.885 83.6915 217.885 83.2153V75.6296C217.885 75.1533 217.477 74.7451 217 74.7451Z" fill="#F6A436"/>
<path d="M217 87.6375H209.415C208.938 87.6375 208.53 88.0457 208.53 88.5219V96.1076C208.53 96.5838 208.938 96.992 209.415 96.992H217C217.477 96.992 217.885 96.5838 217.885 96.1076V88.5219C217.885 88.0457 217.477 87.6715 217 87.6375Z" fill="#BF5A60"/>
<path d="M232.92 36H225.335C224.858 36 224.45 36.4082 224.45 36.8844V44.4702C224.45 44.9464 224.858 45.3546 225.335 45.3546H232.92C233.397 45.3546 233.805 44.9464 233.805 44.4702V36.8844C233.805 36.4082 233.397 36.034 232.92 36Z" fill="#A4A4A4"/>
<path d="M232.92 48.9263H225.335C224.858 48.9263 224.45 49.3345 224.45 49.8107V57.3964C224.45 57.8727 224.858 58.2809 225.335 58.2809H232.92C233.397 58.2809 233.805 57.8727 233.805 57.3964V49.8107C233.805 49.3345 233.397 48.9263 232.92 48.9263Z" fill="#A4A4A4"/>
<path d="M232.92 61.8186H225.335C224.858 61.8186 224.45 62.2268 224.45 62.703V70.2888C224.45 70.765 224.858 71.1732 225.335 71.1732H232.92C233.397 71.1732 233.805 70.765 233.805 70.2888V62.703C233.805 62.2268 233.397 61.8526 232.92 61.8186Z" fill="#E6E6E6"/>
<path d="M232.92 74.7451H225.335C224.858 74.7451 224.45 75.1533 224.45 75.6296V83.2153C224.45 83.6915 224.858 84.0997 225.335 84.0997H232.92C233.397 84.0997 233.805 83.6915 233.805 83.2153V75.6296C233.805 75.1533 233.397 74.7451 232.92 74.7451Z" fill="#EEEEEE"/>
<path d="M232.92 87.6375H225.335C224.858 87.6375 224.45 88.0457 224.45 88.5219V96.1076C224.45 96.5838 224.858 96.992 225.335 96.992H232.92C233.397 96.992 233.805 96.5838 233.805 96.1076V88.5219C233.805 88.0457 233.397 87.6715 232.92 87.6375Z" fill="#A4A4A4"/>
<path d="M248.807 36H241.221C240.745 36 240.336 36.4082 240.336 36.8844V44.4702C240.336 44.9464 240.745 45.3546 241.221 45.3546H248.807C249.283 45.3546 249.691 44.9464 249.691 44.4702V36.8844C249.691 36.4082 249.317 36.034 248.807 36Z" fill="#38C1CE"/>
<path d="M248.807 48.9263H241.221C240.745 48.9263 240.336 49.3345 240.336 49.8107V57.3964C240.336 57.8727 240.745 58.2809 241.221 58.2809H248.807C249.283 58.2809 249.691 57.8727 249.691 57.3964V49.8107C249.691 49.3345 249.317 48.9263 248.807 48.9263Z" fill="#A4A4A4"/>
<path d="M248.807 61.8186H241.221C240.745 61.8186 240.336 62.2268 240.336 62.703V70.2888C240.336 70.765 240.745 71.1732 241.221 71.1732H248.807C249.283 71.1732 249.691 70.765 249.691 70.2888V62.703C249.691 62.2268 249.317 61.8526 248.807 61.8186Z" fill="#E6E6E6"/>
<path d="M248.807 74.7451H241.221C240.745 74.7451 240.336 75.1533 240.336 75.6296V83.2153C240.336 83.6915 240.745 84.0997 241.221 84.0997H248.807C249.283 84.0997 249.691 83.6915 249.691 83.2153V75.6296C249.691 75.1533 249.317 74.7451 248.807 74.7451Z" fill="#A4A4A4"/>
<path d="M248.807 87.6375H241.221C240.745 87.6375 240.336 88.0457 240.336 88.5219V96.1076C240.336 96.5838 240.745 96.992 241.221 96.992H248.807C249.283 96.992 249.691 96.5838 249.691 96.1076V88.5219C249.691 88.0457 249.317 87.6715 248.807 87.6375Z" fill="#F6A436"/>
<path d="M80.9258 58.1812C93.7572 58.1812 104.159 47.7792 104.159 34.9478C104.159 22.1163 93.7572 11.7144 80.9258 11.7144C68.0943 11.7144 57.6924 22.1163 57.6924 34.9478C57.6924 47.7792 68.0943 58.1812 80.9258 58.1812Z" fill="#BF8573"/>
<path d="M101.267 17.9053C101.267 17.9053 107.356 6.27157 93.9879 5.21705C93.9879 5.21705 82.5923 -5.12402 70.9586 3.31212C70.9586 3.31212 64.6314 3.31212 61.1617 10.4896C61.1617 10.4896 56.1613 8.5847 55.0728 13.6532C55.0728 13.6532 51.433 24.2324 55.0728 33.723C58.7125 43.2137 59.9371 44.3022 59.9371 44.3022C59.9371 44.3022 53.9502 24.3684 68.5434 23.3139C83.1365 22.2594 99.4645 13.1429 100.689 24.7767C101.914 36.4104 103.751 39.2678 103.751 39.2678C103.751 39.2678 115.248 22.6676 101.267 17.9053Z" fill="black"/>
<path d="M141.404 123.245L141.336 123.339L140.484 124.361L134.658 131.448L134.317 131.865L133.602 132.745L132.614 133.947L130.433 136.619L129.82 137.381L129.582 137.664L129.513 137.766L128.866 138.559L128.662 138.795L127.06 141.506L125.664 143.871L130.297 144.94L127.537 145.576L125.732 147.973V147.981H51.6303C48.6321 147.533 45.6681 147.069 42.7721 146.598L43.3854 145.545C43.3854 145.545 45.4977 143.667 44.6119 143.439C43.7261 143.211 41.8182 142.81 41.8182 142.81L44.2371 141.506L44.5778 141.325L43.9987 138.622V138.559L43.8283 137.664L43.7942 137.546L43.7602 137.373L43.0447 133.939V133.884L42.8403 132.847L42.6359 131.857L42.5337 131.44L41.6478 127.268L41.0687 124.431L40.5576 121.964L42.6359 121.799L64.9174 120.054L74.1503 117.289L93.3315 117.32L102.735 117.336L118.407 120.691L121.984 121.084H122.018L124.573 121.367L131.047 122.082L137.895 122.836L141.404 123.221V123.245Z" fill="#CACACA"/>
<path d="M76.2654 164.517C70.9588 166.558 65.0059 163.939 62.9309 158.632C62.7268 158.054 62.5567 157.476 62.4206 156.897L26.1929 151.727L38.779 137.474L71.265 144.549C76.9458 143.835 82.1163 147.849 82.8647 153.53C83.477 158.258 80.7556 162.816 76.2654 164.517Z" fill="#BF8573"/>
<path d="M60.1074 138.597C59.4271 137.746 58.4746 137.168 57.4201 136.93L42.5548 133.834L41.024 133.528C39.2211 133.154 37.6904 132.031 36.7719 130.433C36.2957 129.616 36.0236 128.698 35.9215 127.745C35.8535 126.895 35.9555 126.01 36.2277 125.194L41.3642 109.682L44.6978 99.6135C45.106 98.3889 45.3441 97.1303 45.4122 95.8716C45.5823 92.3339 44.4937 88.8302 42.3167 86.0408C38.4047 81.0063 31.6014 79.1014 25.6485 81.4145C25.5805 81.4486 25.4784 81.4826 25.3764 81.5166C21.1583 83.2174 17.9607 86.7892 16.7701 91.1773L13.1303 104.41L5.64667 131.657C2.75525 142.134 8.91228 152.952 19.3894 155.809C20.3419 156.081 21.3284 156.251 22.3149 156.387L43.7454 158.905L53.6442 160.061C56.0254 160.333 58.2025 158.768 58.6787 156.421C58.6787 156.353 58.7127 156.285 58.7127 156.217L58.9508 154.755L60.9578 142.372L60.9918 142.236C61.264 140.91 60.9238 139.617 60.1074 138.597Z" fill="#CACACA"/>
<path d="M99.363 164.891C104.908 166.184 110.452 162.714 111.745 157.169C111.881 156.591 111.983 155.979 111.983 155.367L147.156 145.162L132.665 132.813L101.506 144.379C95.7912 144.447 91.233 149.175 91.301 154.89C91.3351 159.721 94.7027 163.837 99.363 164.891Z" fill="#BF8573"/>
<path d="M164.607 122.37L147.871 83.8976C146.51 80.734 144.061 78.1487 140.965 76.618C140.013 76.1417 139.026 75.7676 137.972 75.5294C137.802 75.4954 137.666 75.4614 137.496 75.4274C135.318 74.9512 133.039 74.9852 130.862 75.5635C126.848 76.584 123.481 79.2713 121.576 82.9451L121.542 82.9791C119.399 87.1291 119.365 92.0275 121.406 96.2116L121.61 96.6198L133.414 120.363C134.978 123.527 133.686 127.405 130.522 128.97C130.318 129.072 130.08 129.174 129.842 129.276L129.025 129.582L114.092 134.957C111.779 135.773 110.52 138.324 111.269 140.671L111.303 140.807L115.487 154.21C115.521 154.278 115.521 154.346 115.555 154.38C115.589 154.482 115.623 154.618 115.691 154.72C116.609 156.795 118.888 157.884 121.065 157.272L129.127 155.162L130.76 154.72L151.578 149.244C162.056 146.488 168.315 135.705 165.559 125.228C165.321 124.207 164.981 123.289 164.607 122.37Z" fill="#CACACA"/>
<path d="M140.727 61.8888C140.387 61.2765 139.775 60.9023 139.06 60.9023H27.5535C26.499 60.9023 25.6826 61.7528 25.6826 62.7733V129.514H140.965V62.8073C140.965 62.5011 140.897 62.195 140.727 61.8888Z" fill="#3F3D56"/>
<path d="M81.9802 104.104C87.8605 104.104 92.6275 99.3369 92.6275 93.4566C92.6275 87.5763 87.8605 82.8093 81.9802 82.8093C76.0999 82.8093 71.333 87.5763 71.333 93.4566C71.333 99.3369 76.0999 104.104 81.9802 104.104Z" fill="#A4A4A4"/>
<path d="M109.126 33.689H107.425C107.425 20.8307 94.7027 12.3946 81.8784 12.3946C80.0075 12.3946 78.1365 12.5646 76.2996 12.9388C74.2246 13.347 72.0816 13.8573 70.0065 14.5036C61.7065 17.0548 54.0187 21.9532 54.0187 33.723C54.0187 36.0021 54.2908 38.2812 54.8691 40.4923L53.2363 40.9346C52.624 38.5874 52.3179 36.1722 52.3179 33.757C52.3179 23.484 56.5359 16.4425 63.8155 12.2245C67.6254 10.0134 72.3197 8.58468 77.6603 7.90435C79.8714 7.5982 82.1505 7.53016 84.3956 7.70025C99.1248 8.68673 109.126 20.0143 109.126 33.689Z" fill="#A4A4A4"/>
<path d="M111.949 34.6414L111.268 29.675C111.098 28.4164 110.486 27.2598 109.568 26.4094C108.343 25.2868 106.676 24.7766 105.077 25.0487L104.023 25.1848C103.445 25.2528 102.9 25.559 102.56 26.0352C102.186 26.5114 102.05 27.0897 102.118 27.702L103.649 39.0976C103.785 40.0501 104.499 40.7984 105.452 41.0025C105.588 41.0366 105.724 41.0366 105.86 41.0366C105.962 41.0366 106.064 41.0366 106.166 41.0025L107.356 40.8325C108.819 40.6284 110.146 39.846 110.996 38.6554C111.098 38.5193 111.166 38.3833 111.268 38.2472C111.881 37.1927 112.153 35.9 111.949 34.6414Z" fill="#A4A4A4"/>
<path d="M103.308 25.4229C103.002 25.5589 102.73 25.797 102.526 26.0692C102.152 26.5454 102.016 27.1237 102.084 27.736L103.614 39.1316C103.751 40.084 104.465 40.8324 105.417 41.0365L103.308 25.4229Z" fill="white"/>
<path d="M111.949 34.6412L111.269 29.6748C111.099 28.4162 110.486 27.2596 109.568 26.4092L111.099 37.7708C111.133 37.9408 111.167 38.1449 111.235 38.315C111.881 37.1925 112.153 35.8998 111.949 34.6412Z" fill="#3F3D56"/>
<path d="M106.65 38.1928C107.116 38.1297 107.35 37.0222 107.173 35.719C106.996 34.4159 106.476 33.4107 106.01 33.4738C105.545 33.537 105.311 34.6445 105.488 35.9476C105.664 37.2507 106.185 38.256 106.65 38.1928Z" fill="#3F3D56"/>
<path d="M105.63 32.07C106.096 32.0069 106.33 30.8994 106.153 29.5962C105.976 28.2931 105.456 27.2879 104.99 27.351C104.525 27.4142 104.291 28.5217 104.467 29.8248C104.644 31.1279 105.165 32.1332 105.63 32.07Z" fill="#3F3D56"/>
<path d="M112.093 34.4514C112.558 34.3883 112.792 33.2807 112.616 31.9776C112.439 30.6745 111.918 29.6693 111.453 29.7324C110.988 29.7955 110.754 30.9031 110.93 32.2062C111.107 33.5093 111.628 34.5145 112.093 34.4514Z" fill="#3F3D56"/>
<path d="M60.1416 45.4927L57.5223 34.6073C57.3182 33.7909 56.6719 33.1786 55.8555 33.0426C55.7535 33.0085 55.6174 33.0085 55.5154 33.0085C55.3453 33.0085 55.2092 33.0426 55.0391 33.0766L54.0186 33.3147C51.2973 33.961 49.6305 36.7164 50.2768 39.4377L51.4674 44.3361C51.7395 45.4927 52.3858 46.5132 53.2702 47.2615C53.4063 47.3976 53.5764 47.4997 53.7465 47.6017C54.903 48.3161 56.2977 48.5542 57.6244 48.214L58.6449 47.9759C58.917 47.9079 59.1551 47.8058 59.3933 47.6357C60.0396 47.1255 60.3457 46.3091 60.1416 45.4927Z" fill="#A4A4A4"/>
<path d="M54.6399 43.4483C55.0965 43.3384 55.2172 42.2128 54.9095 40.9343C54.6017 39.6558 53.9821 38.7084 53.5255 38.8183C53.0689 38.9282 52.9482 40.0538 53.2559 41.3323C53.5637 42.6108 54.1833 43.5582 54.6399 43.4483Z" fill="#3F3D56"/>
<path d="M51.239 44.469C51.6956 44.3591 51.8163 43.2336 51.5086 41.9551C51.2009 40.6765 50.5812 39.7292 50.1246 39.8391C49.668 39.949 49.5473 41.0745 49.855 42.3531C50.1628 43.6316 50.7824 44.5789 51.239 44.469Z" fill="#3F3D56"/>
<path d="M60.3113 45.4587L57.692 34.5733C57.4879 33.6889 56.7736 33.0426 55.8892 32.9065L59.4609 47.7718C60.1753 47.2275 60.5154 46.3091 60.3113 45.4587Z" fill="white"/>
<path d="M50.8889 37.2948C50.8209 36.9886 50.6848 36.7165 50.4807 36.4443C50.1065 37.3968 50.0385 38.4513 50.2766 39.4378L51.4672 44.3362C51.7393 45.4928 52.3856 46.5133 53.2701 47.2616L50.8889 37.2948Z" fill="#3F3D56"/>
<path d="M15.3462 171L0 154.558H237.865L225.808 171H15.3462Z" fill="#323232"/>
<path d="M25.5806 127.745V135.977C25.5806 137.406 26.7371 138.562 28.1658 138.562H70.7207V154.822H70.1424C69.9723 154.822 69.8023 154.958 69.8023 155.163V156.285C69.8023 156.455 69.9383 156.625 70.1424 156.625H96.5734C96.7435 156.625 96.9136 156.489 96.9136 156.285V155.163C96.9136 154.992 96.7775 154.822 96.5734 154.822H95.9951V138.562H138.55C139.979 138.562 141.135 137.406 141.135 135.977V127.745H25.5806Z" fill="#3F3D56"/>
</svg>
