<svg width="153" height="169" viewBox="0 0 153 169" fill="none" xmlns="http://www.w3.org/2000/svg">
<path d="M7.02224 87.9043C7.19494 88.3356 7.2813 88.8533 7.62671 89.1121C12.2897 93.3395 7.79941 96.9629 6.67684 100.759C6.50414 101.449 4.69076 101.881 3.56819 101.967C0.977654 102.139 -0.0585614 103.347 0.114141 105.935C0.200492 107.143 0.286844 108.351 0.114141 109.473C-0.403966 112.923 0.804956 114.735 4.51806 114.908C5.46792 114.994 6.59049 116.116 7.19495 117.065C7.97211 118.186 8.14481 119.653 8.83562 120.861C10.0445 122.931 9.95819 124.743 8.31751 126.468C6.59049 128.194 6.67684 129.833 8.66292 131.386C9.44008 131.99 10.0445 132.766 10.7353 133.456C14.2758 136.994 14.1894 136.907 18.507 134.492C19.3705 134.06 20.6657 134.147 21.702 134.405C22.8245 134.664 23.8607 135.527 24.9833 135.7C27.6602 136.303 29.1282 137.856 29.1282 140.617C29.1282 142.86 30.4234 143.637 32.4959 143.464C33.5321 143.378 34.6546 143.378 35.6909 143.464C39.1449 143.809 41.8218 143.464 41.9082 138.978C41.9082 138.029 43.2898 136.994 44.2396 136.303C45.1895 135.613 46.5711 135.613 47.521 135.009C49.7661 133.543 51.6658 133.543 53.5656 135.441C55.2926 137.252 56.9333 136.821 58.4012 135.009C59.0921 134.147 59.8692 133.37 60.6464 132.766C63.5823 130.609 64.4458 128.366 61.5099 125.347C60.9054 124.743 60.9918 123.19 61.2508 122.155C61.5099 120.774 62.4598 119.566 62.8052 118.272C63.4096 115.857 64.8776 114.649 67.3818 114.649C69.7133 114.649 70.6631 113.441 70.4041 111.112C70.3177 109.818 70.2314 108.524 70.4041 107.229C70.8358 103.865 69.886 101.881 66.0002 101.794C65.0503 101.794 63.9277 100.5 63.3233 99.5511C62.5461 98.4296 62.3734 96.8767 61.6826 95.7551C60.3873 93.6846 60.56 91.8728 62.2007 90.2336C64.1004 88.3356 63.6687 86.6964 61.6826 85.1435C60.9918 84.6259 60.4737 83.9357 59.8692 83.3318C56.4152 79.8809 56.4152 79.9671 52.0976 82.2102C51.2341 82.6416 49.8525 82.5553 48.8163 82.2965C47.6073 82.0377 46.4848 81.0024 45.2759 80.8299C42.6853 80.3985 41.5627 78.7593 41.4764 76.3437C41.39 73.7555 40.0948 72.979 37.7633 73.1516C36.7271 73.2378 35.6045 73.2378 34.5683 73.1516C31.2869 72.8065 28.8691 73.3241 28.6964 77.4652C28.6101 78.5005 27.0557 79.7083 25.9332 80.4848C24.897 81.175 23.5153 81.3475 22.3928 81.9514C20.5794 83.073 18.9387 82.9867 17.3844 81.4338C15.2256 79.2769 13.4986 79.8809 11.7716 81.9514C10.4763 83.5043 8.92198 84.8847 7.54036 86.3513C7.2813 86.7827 7.19494 87.3866 7.02224 87.9043ZM35.3455 122.759C27.4875 122.759 20.9248 116.202 20.8384 108.351C20.8384 100.586 27.4011 93.9434 35.2591 93.8571C43.2034 93.7708 49.9388 100.586 49.8525 108.524C49.7661 116.374 43.2898 122.759 35.3455 122.759Z" fill="#BF5A60"/>
<rect x="110.236" y="63.4502" width="24.9954" height="4.48636" rx="2.24318" fill="#323232"/>
<rect x="88.7915" y="70.1118" width="17.0668" height="4.48636" rx="2.24318" transform="rotate(-46.747 88.7915 70.1118)" fill="#36C0CD"/>
<rect width="11.0244" height="4.48636" rx="2.24318" transform="matrix(-0.685222 -0.728335 -0.728335 0.685222 94.7808 69.5571)" fill="#36C0CD"/>
<rect x="110.236" y="127.541" width="24.9954" height="4.48636" rx="2.24318" fill="#323232"/>
<rect x="88.7915" y="134.203" width="17.0668" height="4.48636" rx="2.24318" transform="rotate(-46.747 88.7915 134.203)" fill="#36C0CD"/>
<rect width="11.0244" height="4.48636" rx="2.24318" transform="matrix(-0.685222 -0.728335 -0.728335 0.685222 94.7808 133.648)" fill="#36C0CD"/>
<rect x="110.236" y="96.1362" width="24.9954" height="4.48636" rx="2.24318" fill="#323232"/>
<rect x="88.7915" y="102.798" width="17.0668" height="4.48636" rx="2.24318" transform="rotate(-46.747 88.7915 102.798)" fill="#36C0CD"/>
<rect width="11.0244" height="4.48636" rx="2.24318" transform="matrix(-0.685222 -0.728335 -0.728335 0.685222 94.7808 102.243)" fill="#36C0CD"/>
<rect width="62.809" height="21.7909" rx="7" transform="matrix(-1 0 0 1 124.336 14.0996)" fill="#323232"/>
<circle cx="14.1" cy="14.1" r="10.6" transform="matrix(-1 0 0 1 107.032 0)" fill="#F6A436" stroke="#323232" stroke-width="7"/>
<path d="M35.2498 69.8591V27.5591C35.2498 25.3159 37.1963 23.0728 40.116 23.0728H61.5271" stroke="#323232" stroke-width="6"/>
<path d="M123.695 23.0728H145.106C148.026 23.0728 149.972 25.7593 149.972 32.3659V160.868C150.293 163.111 147.729 165.675 146.127 165.675C143.563 165.675 73.7044 165.675 39.0953 165.675C36.2112 165.034 35.5703 163.688 35.5703 160.868C35.5703 158.048 35.5703 151.575 35.5703 148.691" stroke="#323232" stroke-width="6"/>
</svg>
