<svg width="150" height="125" viewBox="0 0 150 125" fill="none" xmlns="http://www.w3.org/2000/svg">
<rect x="4" y="4" width="142" height="117" rx="9" stroke="#323232" stroke-width="8"/>
<path d="M67.2751 44.262C67.4295 44.6475 67.5066 45.11 67.8153 45.3413C71.9822 49.119 67.9696 52.357 66.9665 55.7492C66.8122 56.3659 65.1917 56.7514 64.1885 56.8285C61.8736 56.9827 60.9476 58.062 61.1019 60.3749C61.1791 61.4542 61.2563 62.5335 61.1019 63.5358C60.639 66.6196 61.7193 68.2386 65.0374 68.3928C65.8862 68.4699 66.8893 69.4721 67.4295 70.3202C68.124 71.3224 68.2783 72.633 68.8956 73.7124C69.9759 75.5626 69.8988 77.1816 68.4326 78.7235C66.8893 80.2654 66.9665 81.7303 68.7413 83.118C69.4358 83.6576 69.9759 84.3515 70.5932 84.9683C73.757 88.1292 73.6798 88.0521 77.5381 85.8934C78.3097 85.5079 79.4672 85.585 80.3932 85.8163C81.3963 86.0476 82.3223 86.8185 83.3255 86.9727C85.7176 87.5124 87.0294 88.9001 87.0294 91.3672C87.0294 93.3716 88.1869 94.0655 90.0388 93.9113C90.9648 93.8342 91.968 93.8342 92.8939 93.9113C95.9805 94.2197 98.3726 93.9113 98.4498 89.9023C98.4498 89.0543 99.6845 88.1292 100.533 87.5124C101.382 86.8956 102.617 86.8956 103.466 86.356C105.472 85.0453 107.169 85.0453 108.867 86.7414C110.41 88.3604 111.877 87.975 113.188 86.356C113.806 85.585 114.5 84.8912 115.195 84.3515C117.818 82.4241 118.59 80.4196 115.966 77.7213C115.426 77.1816 115.503 75.7939 115.735 74.8688C115.966 73.6353 116.815 72.5559 117.124 71.3995C117.664 69.2408 118.976 68.1615 121.213 68.1615C123.297 68.1615 124.146 67.0822 123.914 65.0006C123.837 63.8442 123.76 62.6877 123.914 61.5313C124.3 58.5246 123.451 56.7514 119.979 56.6743C119.13 56.6743 118.127 55.5179 117.587 54.6698C116.892 53.6676 116.738 52.2799 116.121 51.2776C114.963 49.4274 115.117 47.8084 116.584 46.3436C118.281 44.6475 117.895 43.1827 116.121 41.7949C115.503 41.3324 115.04 40.7156 114.5 40.1759C111.414 37.0921 111.414 37.1692 107.555 39.1737C106.784 39.5592 105.549 39.4821 104.623 39.2508C103.543 39.0195 102.54 38.0944 101.459 37.9402C99.1443 37.5547 98.1412 36.0899 98.064 33.9312C97.9868 31.6184 96.8293 30.9245 94.7459 31.0787C93.8199 31.1558 92.8168 31.1558 91.8908 31.0787C88.9585 30.7703 86.7979 31.2329 86.6436 34.9335C86.5664 35.8586 85.1774 36.9379 84.1743 37.6318C83.2483 38.2486 82.0137 38.4028 81.0105 38.9424C79.3901 39.9447 77.9239 39.8676 76.5349 38.4798C74.6058 36.5525 73.0625 37.0921 71.5192 38.9424C70.3617 40.3301 68.9728 41.5637 67.7381 42.8743C67.5066 43.2597 67.4295 43.7994 67.2751 44.262ZM92.5853 75.4084C85.5633 75.4084 79.6987 69.5492 79.6216 62.5335C79.6216 55.595 85.4861 49.6587 92.5081 49.5816C99.6073 49.5045 105.626 55.595 105.549 62.6877C105.472 69.7034 99.6845 75.4084 92.5853 75.4084Z" fill="#BF5A60"/>
<mask id="path-3-inside-1_1384_236" fill="white">
<rect x="27" y="33" width="20" height="56" rx="2"/>
</mask>
<rect x="27" y="33" width="20" height="56" rx="2" stroke="#323232" stroke-width="6" mask="url(#path-3-inside-1_1384_236)"/>
<path d="M45 87H29L37 101L45 87Z" fill="#36C0CD" stroke="#323232" stroke-width="3" stroke-linejoin="round"/>
<mask id="path-5-inside-2_1384_236" fill="white">
<rect x="27" y="23" width="20" height="13" rx="2"/>
</mask>
<rect x="27" y="23" width="20" height="13" rx="2" fill="#F6A436" stroke="#323232" stroke-width="6" mask="url(#path-5-inside-2_1384_236)"/>
<line x1="37" y1="102" x2="71" y2="102" stroke="#323232" stroke-width="2"/>
<line x1="77" y1="102" x2="87" y2="102" stroke="#323232" stroke-width="2"/>
<line x1="92" y1="102" x2="112" y2="102" stroke="#323232" stroke-width="2"/>
<line x1="114" y1="102" x2="124" y2="102" stroke="#323232" stroke-width="2"/>
</svg>
