<svg width="150" height="83" viewBox="0 0 150 83" fill="none" xmlns="http://www.w3.org/2000/svg">
<path d="M108.887 3.50005C88.1139 3.50005 71.274 20.34 71.274 41.1131C71.274 61.8861 88.1139 78.7261 108.887 78.7261C129.66 78.7261 146.5 61.8862 146.5 41.1131C146.5 20.34 129.66 3.50005 108.887 3.50005Z" stroke="#323232" stroke-width="7"/>
<rect width="58.957" height="16.2164" rx="8.10819" transform="matrix(-1 7.34822e-05 7.34822e-05 1 58.957 33.0063)" fill="#323232"/>
<rect width="5.83141" height="16.0987" rx="2.91571" transform="matrix(-1 7.34822e-05 7.34822e-05 1 66.2549 33.0474)" fill="#BF5A60"/>
<rect x="90" y="37" width="5" height="19" fill="#F6A436"/>
<rect x="101" y="34" width="5" height="22" fill="#323232"/>
<rect x="112" y="36" width="5" height="20" fill="#36C0CD"/>
<rect x="123" y="27" width="5" height="29" fill="#BF5A60"/>
</svg>
