<svg width="150" height="96" viewBox="0 0 150 96" fill="none" xmlns="http://www.w3.org/2000/svg">
<path d="M45.3638 32.6628C45.3638 31.9421 45.3638 31.2972 45.3638 30.6524C45.3638 24.0522 45.3638 17.4899 45.3638 10.8897C45.3638 8.87925 45.7428 8.49993 47.7893 8.49993C64.7297 8.49993 81.7079 8.49993 98.6483 8.49993C112.443 8.49993 126.2 8.49993 139.995 8.49993C142.496 8.49993 142.837 8.84132 142.837 11.3828C142.837 14.9484 142.837 74.9894 142.837 78.6689C145.187 78.6689 147.499 78.6689 149.924 78.6689C149.962 78.2896 150 21.3969 150 20.9796C150 16.0105 150 11.0414 150 6.03433C150 2.3549 147.612 0.00309651 143.974 0.00309651C110.965 0.00309651 77.956 0.00309651 44.909 0.00309651C44.1132 0.00309651 43.2794 -0.0348358 42.5214 0.154826C40.096 0.685878 38.239 2.81008 38.2011 5.35155C38.1632 14.3036 38.2011 23.2556 38.2011 32.2455C38.2011 32.3973 38.2769 32.5111 38.3527 32.7387C40.5887 32.6628 42.9004 32.6628 45.3638 32.6628Z" fill="#323232"/>
<path d="M20.048 47.9873C20.048 47.039 20.0859 46.3941 20.048 45.7493C19.9343 44.4975 20.5406 44.0803 21.7155 44.0803C27.4002 44.1182 33.0849 44.0803 38.7695 44.0803C44.4921 44.0803 50.2147 44.1182 55.9752 44.0803C57.3016 44.0803 57.8322 44.4975 57.8322 45.8631C57.7943 58.229 57.7943 70.5949 57.8322 82.9608C57.8322 84.2885 57.4153 84.7816 56.0131 84.7816C47.4103 84.7437 38.7696 84.7437 30.1667 84.7437C29.5983 84.7437 29.0298 84.7437 28.2718 84.7437C28.2718 86.5644 28.2339 88.3093 28.2718 90.0542C28.3097 91.7991 28.3476 93.5439 26.7938 95.0992C27.5139 95.1371 27.9307 95.213 28.3097 95.213C38.0116 95.213 47.7135 95.213 57.4153 95.175C61.1672 95.175 62.9863 93.3543 62.9863 89.5611C62.9863 73.2502 62.9863 56.9393 62.9863 40.6664C62.9863 37.1007 61.0914 35.2041 57.5669 35.2041C45.2122 35.2041 32.8575 35.2041 20.5027 35.2041C16.5614 35.2041 14.7044 37.1007 14.7044 41.0457C14.7044 42.9802 14.7423 44.9148 14.7044 46.8872C14.7044 47.6838 14.9697 47.9873 15.7655 47.9493C17.1677 47.9493 18.5321 47.9873 20.048 47.9873Z" fill="#BF5A60"/>
<path d="M65.3727 78.6688C91.2263 78.6688 117.034 78.6688 142.934 78.6688C142.934 75.7141 142.934 72.7968 142.934 69.8047C117.08 69.8047 91.2727 69.8047 65.3727 69.8047C65.3727 72.7594 65.3727 75.6767 65.3727 78.6688Z" fill="#323232"/>
<path d="M25.7705 72.8707C25.7705 66.7257 25.7705 60.5428 25.7705 54.3977C25.7705 51.9701 24.3683 50.4907 21.9049 50.4528C15.8792 50.4148 9.89128 50.4148 3.8655 50.4528C1.47793 50.4528 -8.96454e-05 52.008 -8.96454e-05 54.3977C-8.96454e-05 66.7257 -8.96454e-05 79.0537 -8.96454e-05 91.3817C-8.96454e-05 93.8473 1.40215 95.2508 3.90342 95.2508C9.92919 95.2887 15.9171 95.2508 21.9428 95.2129C24.482 95.2129 25.7705 93.8473 25.7705 91.3438C25.7705 85.1987 25.7705 79.0158 25.7705 72.8707ZM23.1556 71.9983C23.1556 76.5122 23.1556 80.9883 23.1935 85.5022C23.1935 86.716 22.8524 87.2091 21.6017 87.2091C15.7655 87.1712 9.96708 87.1712 4.13079 87.1712C3.03175 87.1712 2.65277 86.7919 2.65277 85.6919C2.69066 76.5881 2.69066 67.5223 2.65277 58.4185C2.65277 57.2426 3.03176 56.8633 4.20659 56.8633C9.96708 56.9013 15.7655 56.9013 21.526 56.8633C22.7766 56.8633 23.1935 57.2806 23.1556 58.4944C23.1177 63.0084 23.1556 67.5223 23.1556 71.9983ZM16.1065 54.0184C16.1065 54.1701 16.1065 54.2839 16.1065 54.4357C13.9842 54.4357 11.8241 54.4357 9.7018 54.4357C9.7018 54.2839 9.7018 54.1701 9.7018 54.0184C11.8241 54.0184 13.9464 54.0184 16.1065 54.0184Z" fill="#F6A436"/>
<path d="M75.2654 95.1752C87.8475 95.1752 100.24 95.1752 112.671 95.1752C112.671 92.7476 111.913 92.4062 105.66 91.7993C105.091 89.2199 104.447 86.5646 103.954 83.8714C103.727 82.5058 103.158 82.0507 101.756 82.0886C96.4503 82.2024 91.1446 82.1645 85.8389 82.1265C84.7778 82.1265 84.3609 82.43 84.1714 83.4921C83.7166 85.9956 83.1482 88.4991 82.5418 90.9647C82.466 91.3441 81.8975 91.7613 81.4807 91.8372C80.23 92.0268 78.9415 91.951 77.6909 92.2165C76.3644 92.5579 75.4928 93.5062 75.2654 95.1752Z" fill="#36C0CD"/>
</svg>
