<svg width="100" height="100" viewBox="0 0 100 100" fill="none" xmlns="http://www.w3.org/2000/svg">
<path d="M99.9999 49.9998C100.006 59.6613 97.2068 69.1166 91.9422 77.2168L65.0015 31.063H96.2772C98.7523 37.0686 100.017 43.5039 99.9999 49.9998Z" fill="#38C1CE"/>
<path d="M94.6606 27.511H41.22L56.9191 0.563477C64.9143 1.6837 72.5208 4.7187 79.0918 9.41038C85.6627 14.1021 91.0037 20.3116 94.6606 27.511Z" fill="#F5A437"/>
<path d="M53.0253 1.92555e-05L26.0846 46.5458L10.2385 19.7207C14.8915 13.5863 20.9019 8.61332 27.7984 5.19181C34.695 1.7703 42.2901 -0.00674797 49.9884 1.92555e-05C51.017 1.92555e-05 52.0457 1.92555e-05 53.0253 1.92555e-05Z" fill="#BF5A60"/>
<path d="M34.9502 68.937H3.7234C0.678112 61.493 -0.526852 53.424 0.210766 45.4147C0.948384 37.4055 3.60681 29.6925 7.96044 22.9302L34.9502 68.937Z" fill="#38C1CE"/>
<path d="M58.9032 72.4644L43.302 99.5834C35.2535 98.4711 27.5948 95.4224 20.9829 90.6991C14.371 85.9757 9.00327 79.7186 5.34009 72.4644H58.9032Z" fill="#F5A437"/>
<path d="M89.6892 80.4017C85.0196 86.4973 79.0096 91.4357 72.1249 94.8343C65.2403 98.2329 57.6658 100 49.9883 99.9999C49.0576 99.9999 48.127 99.9999 47.1963 99.9999L73.9166 53.4541L89.6892 80.4017Z" fill="#BF5A60"/>
</svg>
