<svg width="150" height="118" viewBox="0 0 150 118" fill="none" xmlns="http://www.w3.org/2000/svg">
<path d="M75 118C53.2958 118 31.5916 118 9.88746 118C2.17042 118 0 115.703 0 107.965C0 75.3217 0 42.6783 0 10.0348C0 2.41803 2.41158 0 9.88746 0C53.2958 0 96.7042 0 140.113 0C147.709 0 150 2.41803 150 10.0348C150 42.6783 150 75.3217 150 107.965C150 115.703 147.83 118 140.113 118C118.408 118 96.7042 118 75 118ZM75 75.4426C78.135 81.125 80.5466 86.4447 83.8023 91.2807C87.6608 96.9631 95.4984 98.0512 101.166 94.5451C107.074 90.7971 109.124 83.3012 105.868 77.1352C102.613 70.8484 95.3778 68.3094 88.8666 70.9693C87.6608 71.4529 86.5756 72.0574 85.3698 72.6619C81.7524 66.375 80.426 60.6926 84.2846 53.9221C87.6608 47.998 90.0723 41.3484 92.2428 34.8197C94.172 28.8955 92.1222 24.6639 86.8167 21.6414C82.9582 30.2254 79.0997 38.6885 74.8794 48.1189C70.5386 38.6885 66.6801 30.1045 62.8215 21.5205C56.9132 25.5102 55.4662 30.709 58.2395 37.7213C60.5305 43.4037 62.701 49.3279 65.836 54.6475C69.8151 61.2971 67.5241 66.8586 64.5096 72.7828C63.4244 72.1783 62.4598 71.6947 61.6158 71.2111C55.3457 68.3094 48.2315 70.3648 44.6141 76.168C40.9968 81.9713 42.2026 89.2254 47.6286 93.6988C53.537 98.5348 62.2187 97.3258 66.5595 90.7971C69.8151 85.9611 72.1061 80.7623 75 75.4426ZM21.3424 64.1988C21.3424 60.5717 21.3424 57.3074 21.3424 53.9221C17.7251 53.9221 14.4695 53.9221 11.0932 53.9221C11.0932 57.5492 11.0932 60.6926 11.0932 64.1988C14.4695 64.1988 17.7251 64.1988 21.3424 64.1988ZM128.778 53.6803C128.778 57.4283 128.778 60.6926 128.778 64.0779C132.396 64.0779 135.531 64.0779 138.907 64.0779C138.907 60.4508 138.907 57.1865 138.907 53.6803C135.531 53.6803 132.396 53.6803 128.778 53.6803ZM10.9727 85.4775C14.7106 85.4775 17.9662 85.4775 21.2219 85.4775C21.2219 81.8504 21.2219 78.5861 21.2219 75.4426C17.6045 75.4426 14.3489 75.4426 10.9727 75.4426C10.9727 78.9488 10.9727 82.0922 10.9727 85.4775ZM139.027 85.7193C139.027 81.9713 139.027 78.8279 139.027 75.5635C135.41 75.5635 132.034 75.5635 128.899 75.5635C128.899 79.1906 128.899 82.334 128.899 85.7193C132.395 85.7193 135.41 85.7193 139.027 85.7193ZM21.3424 11.123C17.6045 11.123 14.3489 11.123 10.9727 11.123C10.9727 14.6291 10.9727 17.8934 10.9727 21.1578C14.59 21.1578 17.8457 21.1578 21.3424 21.1578C21.3424 17.6516 21.3424 14.5082 21.3424 11.123ZM128.658 21.1578C132.034 21.1578 135.41 21.1578 138.907 21.1578C138.907 17.6516 138.907 14.3873 138.907 11.123C135.289 11.123 132.034 11.123 128.658 11.123C128.658 14.3873 128.658 17.2889 128.658 21.1578ZM21.3424 32.5225C17.7251 32.5225 14.3489 32.5225 11.0932 32.5225C11.0932 36.1496 11.0932 39.293 11.0932 42.5574C14.59 42.5574 17.8457 42.5574 21.3424 42.5574C21.3424 39.1721 21.3424 36.1496 21.3424 32.5225ZM139.148 32.4016C135.41 32.4016 132.154 32.4016 128.778 32.4016C128.778 35.9078 128.778 39.0512 128.778 42.4365C132.396 42.4365 135.651 42.4365 139.148 42.4365C139.148 39.0512 139.148 35.9078 139.148 32.4016ZM11.0932 106.877C14.7106 106.877 17.9662 106.877 21.3424 106.877C21.3424 103.371 21.3424 100.348 21.3424 96.9631C17.8457 96.9631 14.59 96.9631 11.0932 96.9631C11.0932 100.348 11.0932 103.613 11.0932 106.877ZM139.027 106.998C139.027 103.371 139.027 100.227 139.027 97.084C135.41 97.084 132.154 97.084 128.778 97.084C128.778 100.59 128.778 103.613 128.778 106.998C132.275 106.998 135.531 106.998 139.027 106.998Z" fill="#E6E6E6"/>
<path d="M74.9998 75.4422C72.106 80.7618 69.815 85.9606 66.6799 90.6758C62.3391 97.3253 53.5368 98.4135 47.749 93.5774C42.323 89.2249 40.9966 81.9708 44.614 76.1676C48.2314 70.3643 55.3455 68.309 61.6156 71.2106C62.5802 71.6942 63.4243 72.1778 64.5095 72.7823C67.524 66.8581 69.9355 61.2967 65.8359 54.6471C62.7008 49.4483 60.5304 43.5241 58.2394 37.7208C55.4661 30.7085 56.913 25.5098 62.8214 21.52C66.6799 30.104 70.5384 38.6881 74.8793 48.1184C79.0995 38.809 82.958 30.2249 86.8166 21.6409C92.122 24.6635 94.1719 28.895 92.2426 34.8192C90.0722 41.3479 87.6606 47.9975 84.2844 53.9217C80.4259 60.6921 81.7523 66.3745 85.3696 72.6614C86.4548 72.0569 87.6606 71.4524 88.8664 70.9688C95.2571 68.1881 102.612 70.8479 105.868 77.1348C109.124 83.3008 107.074 90.7967 101.165 94.5446C95.4982 98.1717 87.6606 96.9626 83.8021 91.2803C80.5465 86.4442 78.1349 81.1245 74.9998 75.4422ZM100.563 83.3008C100.563 79.5528 97.9098 76.7721 94.1719 76.7721C90.3133 76.7721 87.6606 79.4319 87.6606 83.3008C87.6606 87.0487 90.4339 89.9503 94.0513 89.9503C97.7892 89.8294 100.563 87.0487 100.563 83.3008ZM62.3391 83.4217C62.4596 79.5528 59.8069 76.893 55.9484 76.7721C52.2105 76.6512 49.4371 79.311 49.4371 83.1799C49.4371 87.0487 51.9693 89.7085 55.8278 89.8294C59.4452 89.8294 62.3391 87.0487 62.3391 83.4217Z" fill="#BF5A60"/>
<path d="M21.3425 64.199C17.7251 64.199 14.4695 64.199 11.0933 64.199C11.0933 60.6929 11.0933 57.5494 11.0933 53.9224C14.4695 53.9224 17.7251 53.9224 21.3425 53.9224C21.3425 57.3076 21.3425 60.572 21.3425 64.199Z" fill="#F6A436"/>
<path d="M128.778 53.6802C132.396 53.6802 135.531 53.6802 138.907 53.6802C138.907 57.1863 138.907 60.5716 138.907 64.0777C135.531 64.0777 132.396 64.0777 128.778 64.0777C128.778 60.8134 128.778 57.4281 128.778 53.6802Z" fill="#36C0CD"/>
<path d="M10.9729 85.4772C10.9729 81.9711 10.9729 78.8276 10.9729 75.4424C14.3491 75.4424 17.6047 75.4424 21.2221 75.4424C21.2221 78.5858 21.2221 81.8502 21.2221 85.4772C17.9665 85.4772 14.7108 85.4772 10.9729 85.4772Z" fill="#F6A436"/>
<path d="M139.027 85.7192C135.531 85.7192 132.395 85.7192 128.899 85.7192C128.899 82.334 128.899 79.1905 128.899 75.5635C132.034 75.5635 135.41 75.5635 139.027 75.5635C139.027 78.8278 139.027 82.0922 139.027 85.7192Z" fill="#36C0CD"/>
<path d="M21.3427 11.123C21.3427 14.6292 21.3427 17.6517 21.3427 21.1579C17.9665 21.1579 14.5903 21.1579 10.9729 21.1579C10.9729 17.7726 10.9729 14.6292 10.9729 11.123C14.4697 11.123 17.6047 11.123 21.3427 11.123Z" fill="#F6A436"/>
<path d="M128.657 21.1579C128.657 17.4099 128.657 14.3874 128.657 11.123C132.034 11.123 135.289 11.123 138.907 11.123C138.907 14.3874 138.907 17.6517 138.907 21.1579C135.41 21.1579 132.034 21.1579 128.657 21.1579Z" fill="#36C0CD"/>
<path d="M21.3425 32.5225C21.3425 36.1495 21.3425 39.1721 21.3425 42.5573C17.8457 42.5573 14.7106 42.5573 11.0933 42.5573C11.0933 39.293 11.0933 36.0286 11.0933 32.5225C14.3489 32.5225 17.7251 32.5225 21.3425 32.5225Z" fill="#F6A436"/>
<path d="M139.148 32.4014C139.148 35.9075 139.148 38.9301 139.148 42.4362C135.651 42.4362 132.396 42.4362 128.778 42.4362C128.778 39.1719 128.778 35.9075 128.778 32.4014C132.155 32.4014 135.41 32.4014 139.148 32.4014Z" fill="#36C0CD"/>
<path d="M11.0933 106.877C11.0933 103.613 11.0933 100.349 11.0933 96.9634C14.59 96.9634 17.8457 96.9634 21.3425 96.9634C21.3425 100.349 21.3425 103.371 21.3425 106.877C17.9663 106.877 14.7106 106.877 11.0933 106.877Z" fill="#F6A436"/>
<path d="M139.028 106.998C135.531 106.998 132.275 106.998 128.778 106.998C128.778 103.734 128.778 100.59 128.778 97.084C132.155 97.084 135.41 97.084 139.028 97.084C139.028 100.227 139.028 103.371 139.028 106.998Z" fill="#36C0CD"/>
<path d="M100.563 83.301C100.563 87.0489 97.7893 89.8296 94.0513 89.8296C90.434 89.8296 87.6606 87.0489 87.6606 83.1801C87.6606 79.3112 90.3134 76.6514 94.1719 76.6514C97.9098 76.7723 100.683 79.553 100.563 83.301Z" fill="#E6E6E6"/>
<path d="M62.3392 83.4221C62.2186 87.0492 59.3247 89.9508 55.7073 89.8299C51.9694 89.709 49.3167 87.0492 49.3167 83.1803C49.3167 79.3115 52.09 76.6516 55.8279 76.7725C59.807 76.8934 62.4597 79.5533 62.3392 83.4221Z" fill="#E6E6E6"/>
</svg>
