<svg width="144" height="20" viewBox="0 0 144 20" fill="none" xmlns="http://www.w3.org/2000/svg">
<g clip-path="url(#clip0_1006_2)">
<path d="M0 19.7325V0.267578H4.10256V16.3434H12.4638V19.7325H0Z" fill="#bf5a60"/>
<path d="M19.2643 20.0669C18.4132 20.0878 17.5681 19.9203 16.7893 19.5764C16.0812 19.2724 15.4769 18.7688 15.0502 18.1271C14.5877 17.3715 14.3697 16.4917 14.4259 15.6076C14.4092 14.8981 14.5621 14.1948 14.8718 13.5563C15.1503 13.0194 15.5657 12.5656 16.0758 12.2408C16.6188 11.9058 17.2143 11.6646 17.8373 11.5273C18.5158 11.3393 19.2097 11.2125 19.9109 11.1483C20.7581 11.1483 21.427 10.9922 21.9621 10.903C22.3539 10.8599 22.733 10.7386 23.077 10.5463C23.1917 10.4723 23.285 10.3696 23.3476 10.2483C23.4102 10.127 23.4399 9.99142 23.4337 9.85507C23.4508 9.59424 23.4097 9.33287 23.3133 9.08991C23.2169 8.84695 23.0676 8.6285 22.8763 8.45039C22.4155 8.10315 21.8471 7.92946 21.2709 7.95986C20.6525 7.92221 20.0395 8.09511 19.5318 8.45039C19.1212 8.74422 18.8225 9.16871 18.6845 9.6544L14.9387 9.27536C15.1131 8.44887 15.497 7.68109 16.0536 7.0457C16.6532 6.35601 17.4214 5.83362 18.2832 5.52954C19.2669 5.16448 20.3112 4.99043 21.3601 5.01672C22.1109 5.02348 22.8587 5.11322 23.5898 5.28428C24.2972 5.46653 24.9683 5.76815 25.5742 6.17614C26.145 6.57169 26.6117 7.09954 26.9343 7.7146C27.2887 8.40333 27.465 9.16987 27.4471 9.94426V19.7324H23.6567V17.7035H23.5229C23.2911 18.1613 22.9731 18.5701 22.5864 18.9075C22.1732 19.2614 21.6965 19.5338 21.1818 19.7101C20.5684 19.9404 19.9194 20.0611 19.2643 20.0669ZM20.4237 17.2798C20.9717 17.2833 21.5132 17.1613 22.0067 16.9231C22.4367 16.6961 22.8042 16.3668 23.077 15.9643C23.3435 15.5529 23.4831 15.0721 23.4783 14.5819V13.0212C23.3115 13.1207 23.1313 13.1958 22.9432 13.2441L22.2966 13.3779L21.4939 13.534L20.7358 13.6455C20.3132 13.6978 19.9002 13.8105 19.5095 13.9799C19.1791 14.1027 18.8869 14.3103 18.6622 14.5819C18.4245 14.8717 18.2911 15.2329 18.2832 15.6076C18.2692 15.8497 18.3171 16.0914 18.4224 16.3099C18.5278 16.5284 18.687 16.7164 18.8852 16.8562C19.3477 17.134 19.8861 17.2588 20.4237 17.2129V17.2798Z" fill="#bf5a60"/>
<path d="M30.7024 19.7325V0.267578H34.7604V7.58085H34.8718C35.0827 7.14446 35.3528 6.73929 35.6745 6.37683C36.0414 5.94259 36.4977 5.59273 37.0123 5.35119C37.6478 5.06025 38.3429 4.92277 39.0413 4.94985C40.0876 4.94106 41.1153 5.22695 42.0067 5.77482C42.9794 6.36985 43.7549 7.23848 44.2364 8.27204C44.8312 9.57902 45.1136 11.0065 45.0614 12.4415C45.1044 13.8591 44.8301 15.2683 44.2587 16.5664C43.8113 17.5994 43.0759 18.4818 42.1405 19.1082C41.219 19.7322 40.1319 20.0661 39.019 20.0669C38.3302 20.092 37.6445 19.9625 37.0123 19.6879C36.5073 19.4502 36.053 19.1171 35.6745 18.7068C35.3541 18.3433 35.0841 17.9384 34.8718 17.5028H34.6935V19.7325H30.7024ZM34.6712 12.4192C34.6575 13.1777 34.7782 13.9325 35.0279 14.6489C35.2345 15.2393 35.5966 15.7631 36.0759 16.165C36.5611 16.5201 37.1468 16.7115 37.7481 16.7115C38.3494 16.7115 38.9351 16.5201 39.4203 16.165C39.8993 15.7673 40.255 15.2414 40.446 14.6489C40.6966 13.9328 40.8174 13.1777 40.8027 12.4192C40.8234 11.6603 40.7024 10.9041 40.446 10.1895C40.2496 9.59964 39.8948 9.07512 39.4203 8.67338C38.9406 8.30879 38.3503 8.11989 37.7481 8.13826C37.1453 8.11619 36.5538 8.30547 36.0759 8.67338C35.5862 9.04702 35.2209 9.55999 35.0279 10.1449C34.7701 10.8746 34.6491 11.6456 34.6712 12.4192Z" fill="#bf5a60"/>
<path d="M71.7949 9.98886C71.85 11.8669 71.4362 13.729 70.5909 15.4069C69.8506 16.8366 68.7122 18.0214 67.3133 18.8183C65.8862 19.593 64.2882 19.9988 62.6644 19.9988C61.0407 19.9988 59.4426 19.593 58.0156 18.8183C56.628 18.0141 55.4987 16.8306 54.7603 15.4069C53.8995 13.733 53.4703 11.8707 53.5117 9.98886C53.4566 8.11084 53.8704 6.2487 54.7157 4.5708C55.4615 3.1582 56.5896 1.9838 57.971 1.18172C59.398 0.406996 60.9961 0.00119019 62.6198 0.00119019C64.2436 0.00119019 65.8416 0.406996 67.2687 1.18172C68.6614 1.97661 69.7984 3.15231 70.5463 4.5708C71.4071 6.2447 71.8362 8.10705 71.7949 9.98886ZM67.6254 9.98886C67.6608 8.79869 67.4482 7.61417 67.0011 6.5106C66.6672 5.61101 66.0687 4.83365 65.2843 4.28094C64.5085 3.77885 63.5994 3.52242 62.6756 3.54516C61.7341 3.58178 60.8253 3.90025 60.0669 4.45932C59.2825 5.01203 58.6839 5.78938 58.3501 6.68897C57.912 7.79514 57.6998 8.97778 57.7258 10.1672C57.7341 11.2668 57.9458 12.3553 58.3501 13.3779C58.6802 14.2796 59.2795 15.058 60.0669 15.6076C60.8514 16.0874 61.756 16.3348 62.6756 16.3211C63.5958 16.3398 64.5017 16.092 65.2843 15.6076C66.0716 15.058 66.671 14.2796 67.0011 13.3779C67.4398 12.3031 67.6523 11.1494 67.6254 9.98886Z" fill="#323232"/>
<path d="M81.3377 20.0669C79.9985 20.1043 78.6739 19.7809 77.5027 19.1304C76.4398 18.4924 75.5812 17.5641 75.0278 16.4548C74.4275 15.2434 74.1292 13.9047 74.1582 12.5529C74.1298 11.187 74.428 9.83401 75.0278 8.60646C75.5925 7.5109 76.449 6.59269 77.5027 5.95317C78.6072 5.36536 79.8293 5.03223 81.0793 4.97821C82.3294 4.9242 83.5756 5.15067 84.7267 5.64102C85.6341 6.07047 86.4055 6.74164 86.9564 7.58082C87.525 8.46103 87.8482 9.47705 87.8929 10.524H84.0356C83.9674 9.85592 83.6677 9.23277 83.1883 8.76254C82.9513 8.53666 82.6712 8.36098 82.3647 8.24603C82.0582 8.13109 81.7316 8.07926 81.4046 8.09364C80.8137 8.08234 80.235 8.26221 79.7546 8.60646C79.2579 8.98311 78.8789 9.4936 78.6621 10.078C78.3973 10.8296 78.2689 11.6224 78.283 12.4192C78.2636 13.2308 78.392 14.0393 78.6621 14.8049C78.8847 15.3924 79.2622 15.9086 79.7546 16.2988C80.235 16.643 80.8137 16.8229 81.4046 16.8116C81.8383 16.8194 82.2672 16.7198 82.6532 16.5217C83.0335 16.3034 83.349 15.9879 83.5673 15.6076C83.8214 15.2104 83.9816 14.7605 84.0356 14.2921H87.8706C87.8377 15.3656 87.5224 16.4116 86.9564 17.3244C86.4096 18.1726 85.6376 18.8519 84.7267 19.2865C83.6762 19.8154 82.5137 20.0831 81.3377 20.0669Z" fill="#323232"/>
<path d="M99.8215 13.5117V5.1282H103.879V19.7324H99.9776V17.0792H99.8438C99.5128 17.9134 98.9377 18.6283 98.1939 19.1304C97.3693 19.6756 96.3946 19.9485 95.4068 19.9108C94.5065 19.9308 93.6185 19.6992 92.8427 19.2419C92.0927 18.8007 91.4881 18.1496 91.1036 17.369C90.6637 16.4518 90.4496 15.4427 90.4793 14.4259V5.1282H94.5149V13.7124C94.4821 14.4515 94.7289 15.176 95.2061 15.7414C95.437 15.9936 95.7204 16.1921 96.0362 16.3231C96.3521 16.4541 96.6928 16.5143 97.0344 16.4994C97.5157 16.5026 97.9903 16.3878 98.4168 16.165C98.8458 15.933 99.2011 15.5854 99.4425 15.1616C99.7265 14.6602 99.8582 14.0868 99.8215 13.5117Z" fill="#323232"/>
<path d="M111.148 0.267578V19.7325H107.023V0.267578H111.148Z" fill="#323232"/>
<path d="M123.746 13.5117V5.1282H127.781V19.7324H123.902V17.0792H123.746C123.428 17.9147 122.86 18.6313 122.118 19.1304C121.292 19.6728 120.318 19.9455 119.331 19.9108C118.424 19.9314 117.528 19.6999 116.745 19.2419C116.003 18.7901 115.401 18.1418 115.005 17.369C114.577 16.4481 114.363 15.4416 114.381 14.4259V5.1282H118.439V13.7124C118.395 14.4531 118.643 15.1817 119.13 15.7414C119.356 15.9999 119.639 16.2029 119.956 16.3344C120.273 16.4659 120.616 16.5224 120.959 16.4994C121.433 16.5027 121.9 16.3877 122.319 16.165C122.755 15.9344 123.117 15.587 123.367 15.1616C123.63 14.6523 123.76 14.0848 123.746 13.5117Z" fill="#323232"/>
<path d="M143.166 9.29765L139.465 9.52062C139.398 9.20026 139.252 8.90153 139.041 8.65105C138.823 8.39201 138.548 8.18613 138.239 8.04905C137.852 7.88234 137.434 7.79878 137.012 7.80378C136.457 7.78432 135.908 7.92354 135.429 8.20512C135.237 8.30543 135.076 8.45574 134.962 8.64018C134.848 8.82462 134.786 9.03636 134.783 9.25306C134.78 9.42427 134.817 9.59378 134.89 9.74845C134.964 9.90311 135.072 10.0388 135.206 10.1449C135.635 10.4373 136.122 10.6349 136.633 10.7246L139.287 11.2597C140.449 11.4346 141.543 11.9199 142.453 12.6644C142.799 12.9888 143.071 13.3834 143.252 13.8218C143.433 14.2603 143.517 14.7323 143.501 15.2062C143.549 16.1502 143.265 17.0813 142.698 17.8372C142.112 18.5788 141.344 19.1551 140.468 19.5095C139.357 19.9247 138.175 20.1142 136.99 20.0669C135.365 20.1468 133.754 19.7266 132.375 18.8629C131.83 18.492 131.37 18.0104 131.024 17.4494C130.678 16.8885 130.454 16.2608 130.368 15.6076L134.359 15.4069C134.403 15.6779 134.504 15.9368 134.653 16.167C134.803 16.3973 134.999 16.594 135.229 16.7447C135.762 17.0769 136.384 17.2401 137.012 17.2129C137.613 17.2328 138.207 17.0862 138.729 16.7893C138.94 16.6769 139.114 16.5051 139.229 16.2952C139.344 16.0852 139.395 15.8462 139.376 15.6076C139.375 15.4291 139.332 15.2534 139.251 15.0946C139.169 14.9358 139.052 14.7984 138.907 14.6934C138.483 14.4167 138.004 14.2342 137.503 14.1583L134.983 13.6455C133.797 13.484 132.687 12.9715 131.795 12.1739C131.452 11.8158 131.184 11.3925 131.008 10.9291C130.832 10.4656 130.751 9.97149 130.769 9.47602C130.749 8.60816 131.024 7.75922 131.55 7.068C132.126 6.33782 132.9 5.78839 133.779 5.48494C134.822 5.10569 135.926 4.92421 137.035 4.94983C138.607 4.84249 140.173 5.24941 141.494 6.10925C141.973 6.50068 142.368 6.98488 142.655 7.53277C142.943 8.08067 143.116 8.68097 143.166 9.29765Z" fill="#323232"/>
</g>
<defs>
<clipPath id="clip0_1006_2">
<rect width="143.501" height="20" fill="white"/>
</clipPath>
</defs>
</svg>
